<svg width="42" height="22" viewBox="0 0 42 22" fill="none" xmlns="http://www.w3.org/2000/svg">
<g clip-path="url(#clip0_1820_2055)">
<path d="M22.1972 10.7044H22.1953L22.1972 10.7025V10.7044Z" fill="#192733"/>
<path d="M18.8593 13.0282V13.0301L18.8574 13.0282H18.8593Z" fill="#192733"/>
<path d="M20.453 12.165L20.4512 12.1669V12.165H20.453Z" fill="#192733"/>
<path d="M20.5116 15.14L20.5098 15.1381H20.5116V15.14Z" fill="#192733"/>
<path d="M21.3769 14.371L21.375 14.3691H21.3769V14.371Z" fill="#192733"/>
<path d="M31.1793 0.157166C30.889 0.157166 30.6028 0.171837 30.3187 0.194885L30.0778 0.215832L29.8966 0.236786C29.7525 0.253548 29.6084 0.2745 29.4663 0.295452H29.4272C29.3284 0.310119 29.2213 0.324788 29.1328 0.343645H29.0793C28.9887 0.360407 28.9002 0.379266 28.8013 0.404409C27.6998 0.651396 26.6441 1.07579 25.674 1.66155C25.4681 1.78308 25.289 1.9025 25.1078 2.03031C24.8381 2.21888 24.5746 2.41793 24.3213 2.62955C24.2081 2.72593 24.099 2.82231 23.9899 2.92288L23.9693 2.94174C23.9282 2.97579 23.889 3.01216 23.8519 3.05069L23.8313 3.07164L23.8108 3.0905L23.7675 3.13031C23.6069 3.28536 23.4505 3.44669 23.3002 3.61012L22.8431 4.1465C22.8205 4.17374 22.7937 4.20307 22.7649 4.24288L21.7128 5.72631L21.4863 6.0427L21.4246 6.13069L21.3196 6.27736L21.2763 6.33603V6.36117L21.124 6.54764L21.1096 6.5686L20.9366 6.81374L20.9243 6.79698L20.3066 7.66021L20.4302 7.85298C20.5413 8.03107 20.6505 8.20917 20.7534 8.39355C20.8172 8.51088 20.8831 8.62612 20.949 8.74136L20.9696 8.77488L21.0025 8.75812C21.0398 8.74307 21.0806 8.73943 21.1199 8.74764C21.2826 8.78025 21.4387 8.8412 21.5811 8.92783C21.5976 8.93787 21.6157 8.94496 21.6346 8.94879C21.7329 8.97434 21.8293 9.00725 21.9228 9.04726C21.9908 9.07659 22.0608 9.10174 22.1287 9.12688C22.204 9.1493 22.274 9.1873 22.3342 9.2385C22.3944 9.28969 22.4436 9.35298 22.4787 9.42441C22.5137 9.48937 22.5425 9.55851 22.5755 9.63394L22.6763 9.84346C22.7011 9.89165 22.7258 9.94193 22.7525 9.99012C22.8414 10.159 22.9448 10.3195 23.0613 10.4699C23.1236 10.5448 23.1806 10.6239 23.2322 10.7067C23.2845 10.7933 23.326 10.8862 23.3558 10.9833C23.3908 11.0838 23.4216 11.1928 23.4649 11.2829C23.4939 11.3515 23.5277 11.418 23.5658 11.4819C23.5734 11.494 23.5803 11.5066 23.5863 11.5197L23.924 11.0461L23.9981 10.9414L24.2781 10.5496L24.3831 10.405L24.4181 10.3589L25.0358 9.48727L25.3878 8.9907L25.5772 8.72879L26.6396 7.23069L26.6663 7.20345C26.8125 7.03793 26.9628 6.88288 27.1131 6.73831L27.1255 6.75298C28.1221 5.77378 29.43 5.18964 30.8128 5.10612C30.9137 5.10612 31.0187 5.10612 31.1175 5.10612C32.1505 5.10613 33.1651 5.38436 34.0583 5.91256C34.9515 6.44076 35.6914 7.2001 36.2029 8.11348C36.7143 9.02685 36.9792 10.0617 36.9705 11.113C36.9618 12.1642 36.6799 13.1944 36.1534 14.0989C36.05 14.276 35.9372 14.4474 35.8158 14.6122C35.3408 15.2592 34.7424 15.802 34.0565 16.2081C33.3705 16.6142 32.6111 16.8752 31.8237 16.9756H31.7908H31.6899C31.5169 16.9924 31.3419 17.0008 31.1669 17.0008C30.6814 17.0027 30.1974 16.9443 29.7258 16.8269H29.7134L29.6208 16.8017L29.489 16.7619C29.3675 16.7263 29.244 16.6844 29.1205 16.6362L28.9846 16.5817C28.824 16.5126 28.6593 16.4351 28.4987 16.3471L28.2208 16.1878L28.1466 16.1417C27.9605 16.023 27.7811 15.8936 27.6093 15.7541C27.1705 15.4003 26.7726 14.9968 26.4234 14.5515L26.3493 14.4509L26.339 14.432L26.2258 14.2749L26.0796 14.0779L25.2355 12.8941L25.1655 12.7956C25.1655 12.7956 25.0008 12.5233 24.8958 12.3766L24.3069 13.1665L24.2431 13.2503L22.5528 15.5153L22.4952 15.5928L22.4458 15.6577L22.3861 15.7395L21.8322 16.5021L22.5549 17.5183L22.6187 17.6084C22.6434 17.644 22.6722 17.6796 22.7031 17.7174C22.904 17.9833 23.1206 18.2366 23.3516 18.4758L23.3784 18.5052L23.3516 18.5366C24.3521 19.6167 25.5592 20.4769 26.8987 21.0643C28.2382 21.6516 29.6816 21.9537 31.1402 21.9518C32.5461 21.9551 33.9389 21.6766 35.239 21.1321C36.5392 20.5876 37.7212 19.7878 38.7176 18.7785C39.714 17.7691 40.5053 16.5699 41.0464 15.2492C41.5874 13.9286 41.8675 12.5125 41.8708 11.0817C41.874 9.65096 41.6003 8.23354 41.0653 6.9104C40.5303 5.58727 39.7444 4.38433 38.7526 3.37028C37.7607 2.35623 36.5823 1.55092 35.2847 1.00033C33.987 0.449744 32.5955 0.164662 31.1896 0.16136L31.1793 0.157166Z" fill="#00B690"/>
<path d="M23.5973 11.528L23.5603 11.5825C23.4964 11.461 23.4409 11.3353 23.3873 11.2054C23.3338 11.0755 23.2967 10.9958 23.2412 10.8848C23.1976 10.8124 23.1501 10.7424 23.0991 10.6753L22.9817 10.5139C22.9253 10.4313 22.8751 10.3444 22.8314 10.2541L22.7285 10.0446C22.64 9.87907 22.5514 9.71565 22.465 9.54803C22.3913 9.40058 22.2677 9.28523 22.117 9.22327C21.9956 9.17298 21.87 9.12899 21.7444 9.08289C21.7193 9.07117 21.6915 9.06682 21.6641 9.07032C21.7094 9.11013 21.7135 9.13107 21.6888 9.19393C21.676 9.22825 21.6564 9.25953 21.6313 9.28584C21.6062 9.31215 21.576 9.33292 21.5426 9.34688H21.5303C21.6021 9.28814 21.6487 9.20322 21.66 9.11013C21.5311 9.02433 21.393 8.95402 21.2482 8.90061C21.198 8.88267 21.1463 8.86935 21.0938 8.8608C21.0944 8.88915 21.0986 8.9173 21.1062 8.9446C21.1062 8.97184 21.1062 8.99908 21.1185 9.02631C21.1309 9.05355 21.1185 9.0787 21.1185 9.10593C21.1185 9.13317 21.1185 9.1604 21.1185 9.19183C21.1083 9.18511 21.0997 9.17619 21.0933 9.16568C21.0869 9.15518 21.0828 9.14336 21.0814 9.13108L21.0567 8.99278C21.0539 8.96266 21.0408 8.93451 21.0197 8.91318C21.0001 8.92367 20.9837 8.93932 20.9721 8.95849C20.9605 8.97765 20.9542 8.99962 20.9538 9.02212C20.9506 9.04996 20.9506 9.07809 20.9538 9.10593V9.14365C20.9521 9.15016 20.9524 9.15704 20.9546 9.16339C20.9568 9.16975 20.9608 9.17528 20.9661 9.17926C20.9623 9.19448 20.9616 9.21035 20.964 9.22586C20.9665 9.24138 20.9721 9.25618 20.9806 9.26936C21.0053 9.26936 21.0094 9.30079 21.0094 9.32593L20.9909 9.30917L21.0094 9.33431C21.0064 9.34456 21.0064 9.35549 21.0094 9.36574C21.0331 9.44707 21.0634 9.52626 21.1 9.6025C21.1309 9.65698 21.1597 9.71146 21.1926 9.76174C21.2523 9.85018 21.3213 9.93168 21.3985 10.0048C21.4366 10.0445 21.4812 10.0771 21.5303 10.1012C21.5742 10.1208 21.6226 10.128 21.6703 10.1221C21.6895 10.1215 21.708 10.1149 21.7234 10.1033C21.7389 10.0917 21.7505 10.0756 21.7567 10.0572C21.7911 9.98458 21.8428 9.9219 21.907 9.87488C21.9349 9.85047 21.9683 9.83348 22.0043 9.82543C22.0402 9.81739 22.0775 9.81854 22.1129 9.82879C22.1129 9.84556 22.1129 9.84555 22.0985 9.84764L22.0059 9.87908C21.9553 9.90161 21.9119 9.93785 21.8803 9.98384C21.8442 10.0363 21.8112 10.0909 21.7814 10.1473C21.7697 10.169 21.764 10.1937 21.765 10.2185C21.8329 10.229 21.8803 10.1808 21.9276 10.1347C21.94 10.1347 21.9276 10.1536 21.9276 10.164L21.9029 10.2038H21.9194C21.9194 10.2038 21.8947 10.2206 21.8844 10.2311C21.8765 10.2371 21.8703 10.2451 21.8664 10.2543C21.8624 10.2634 21.8608 10.2735 21.8617 10.2835C21.8741 10.2835 21.8885 10.2981 21.8803 10.3191C21.872 10.34 21.8906 10.3505 21.9009 10.3505C21.9112 10.3505 21.9009 10.3819 21.9214 10.3819C21.942 10.3819 21.9214 10.405 21.9214 10.4155C21.9268 10.4239 21.9309 10.4331 21.9338 10.4427C21.9338 10.4699 21.9338 10.4699 21.9647 10.4993V10.516C21.9791 10.5433 21.9812 10.5831 22.0141 10.5977C21.9976 10.625 22.0429 10.6187 22.0306 10.6417C22.0182 10.6648 22.045 10.6774 22.0656 10.6753C22.0862 10.6732 22.0759 10.6857 22.0779 10.6962C22.08 10.7067 22.0882 10.7067 22.0964 10.713C22.0915 10.721 22.0853 10.7281 22.0779 10.7339C22.0914 10.7346 22.1049 10.7325 22.1176 10.7278C22.1304 10.7231 22.142 10.716 22.152 10.7067C22.152 10.7067 22.1685 10.6899 22.1809 10.6941L22.0903 10.7696L22.1438 10.7465L22.2673 10.692C22.309 10.6776 22.353 10.6712 22.397 10.6732C22.4066 10.672 22.4163 10.672 22.4259 10.6732L22.3888 10.6878C22.3435 10.7046 22.3003 10.7256 22.255 10.7465C22.2309 10.7585 22.2097 10.7758 22.1929 10.7972C22.1762 10.8186 22.1643 10.8435 22.1582 10.8701C22.1447 10.9142 22.1384 10.9602 22.1397 11.0063C22.1767 10.9958 22.1788 10.9497 22.2056 10.933C22.2056 10.933 22.2056 10.9476 22.2056 10.9623L22.2488 10.9435C22.2221 10.9885 22.2039 11.0382 22.1953 11.0901C22.22 11.0608 22.2385 11.0356 22.2612 11.0126C22.2937 10.977 22.3374 10.9541 22.3847 10.9476L22.3435 10.977C22.3004 10.9999 22.2652 11.0358 22.2426 11.0796C22.2268 11.1032 22.2175 11.1307 22.2159 11.1593C22.2159 11.1593 22.2159 11.1739 22.2159 11.1823C22.2247 11.1736 22.2323 11.1637 22.2385 11.153C22.2385 11.132 22.255 11.109 22.2632 11.088C22.2642 11.0971 22.2642 11.1062 22.2632 11.1153C22.2632 11.1404 22.2509 11.1655 22.2467 11.1928C22.2426 11.22 22.2344 11.2326 22.2591 11.241C22.2838 11.2494 22.2591 11.2871 22.2591 11.3143C22.2713 11.3117 22.283 11.3075 22.2941 11.3017C22.3435 11.2701 22.4004 11.2527 22.4588 11.2515C22.6032 11.247 22.7459 11.284 22.8706 11.3583C22.8824 11.3638 22.893 11.3717 22.9018 11.3814C22.9107 11.3911 22.9175 11.4025 22.922 11.4149L22.885 11.3981C22.7364 11.3232 22.5646 11.3111 22.4073 11.3646L22.3723 11.3772C22.3496 11.3874 22.3303 11.4041 22.3167 11.4253C22.3032 11.4465 22.296 11.4713 22.2962 11.4966V11.5595H22.3291H22.3703C22.4497 11.5511 22.5297 11.5511 22.6091 11.5595C22.6935 11.5741 22.7779 11.5804 22.8623 11.593C22.9297 11.6019 22.9947 11.6239 23.0538 11.6579C23.0538 11.6579 23.0538 11.6579 23.0641 11.6726C22.8576 11.599 22.6337 11.5931 22.4238 11.6558C22.4238 11.6789 22.4238 11.6789 22.4423 11.6831C22.5226 11.7271 22.607 11.769 22.6873 11.8151C22.7831 11.87 22.8722 11.9361 22.9529 12.012C22.9617 12.0185 22.9677 12.0283 22.9694 12.0393H22.9467C22.8423 11.9683 22.7329 11.9053 22.6194 11.8507C22.5144 11.8021 22.4047 11.7649 22.292 11.7397H22.2673C22.2548 11.8257 22.2472 11.9125 22.2447 11.9995C22.2447 12.165 22.2447 12.3326 22.2447 12.4981C22.2447 12.5463 22.2447 12.5945 22.2447 12.6427C22.2416 12.6593 22.2416 12.6764 22.2447 12.693C22.2447 12.693 22.2447 12.7118 22.2344 12.7265L22.2776 12.7579H22.2344C22.222 12.8711 22.2117 12.9863 22.2014 13.0995C22.2014 13.1351 22.2014 13.1707 22.2014 13.2042C22.198 13.2591 22.214 13.3134 22.2467 13.3572L22.1335 13.5164C22.1335 13.4682 22.1335 13.42 22.1335 13.3718C22.1273 13.2672 22.1273 13.1622 22.1335 13.0576C22.1335 12.9214 22.1459 12.7852 22.15 12.6385C22.1541 12.4918 22.15 12.3871 22.15 12.2635C22.15 12.2404 22.15 12.2174 22.15 12.1922H22.1253C22.1274 12.078 22.1357 11.964 22.15 11.8507C22.1651 11.7067 22.1699 11.5617 22.1644 11.417C22.1595 11.3436 22.1391 11.2721 22.1047 11.2075C22.0779 11.1488 22.0532 11.0901 22.0244 11.0336C21.9956 10.977 21.975 10.9372 21.9503 10.8911C21.9256 10.845 21.8906 10.7947 21.8617 10.7444L21.8082 10.6501L21.697 10.4699C21.697 10.4699 21.6847 10.4846 21.697 10.4951C21.7094 10.5056 21.73 10.5391 21.7259 10.5747C21.7217 10.6103 21.7423 10.5956 21.7526 10.6061C21.7629 10.6166 21.7526 10.6229 21.7526 10.6334C21.7526 10.6061 21.7526 10.6061 21.7156 10.604C21.652 10.4509 21.5644 10.3094 21.4562 10.185C21.38 10.0928 21.2997 10.0048 21.2194 9.91679C21.2293 9.94499 21.2439 9.97122 21.2626 9.99431L21.3862 10.1577C21.4084 10.1864 21.4278 10.2172 21.4438 10.2499L21.3388 10.1221C21.2461 10.009 21.1535 9.89583 21.065 9.78059C20.9764 9.66536 20.8962 9.55431 20.8138 9.43907C20.785 9.39926 20.7603 9.35317 20.7335 9.30917C20.7067 9.26517 20.6697 9.20022 20.6367 9.14574C20.5647 9.02632 20.4988 8.9006 20.4309 8.77069C20.4238 8.75716 20.4203 8.74202 20.4206 8.7267C20.4391 8.76232 20.4597 8.79584 20.4782 8.82936C20.5379 8.93831 20.5935 9.03888 20.6614 9.14993C20.7006 9.21069 20.7356 9.27565 20.7726 9.3406L20.7994 9.38041C20.8282 9.42651 20.8591 9.47259 20.89 9.51659C20.9209 9.56059 20.9353 9.57736 20.962 9.61298C20.9209 9.53336 20.8838 9.46212 20.8488 9.39088C20.8155 9.32332 20.7873 9.25327 20.7644 9.18136C20.7534 9.13946 20.7411 9.09756 20.7273 9.05565C20.7171 9.0294 20.7171 9.00018 20.7273 8.97393C20.7422 8.93417 20.7601 8.89565 20.7809 8.8587C20.788 8.84354 20.799 8.83065 20.8128 8.82142C20.8266 8.81219 20.8426 8.80696 20.8591 8.80631H20.892C20.8817 8.75393 20.8385 8.73507 20.82 8.69526H20.8364C20.8222 8.67556 20.8097 8.65452 20.7994 8.63241C20.7088 8.44803 20.5935 8.27412 20.4947 8.10022C20.437 8.00384 20.3794 7.90955 20.3197 7.81527L20.2559 7.71679L20.3053 7.64764L20.4288 7.84041C20.54 8.0185 20.6491 8.1966 20.752 8.38098C20.8159 8.49831 20.8817 8.61355 20.9476 8.72879L20.9682 8.76231L21.0012 8.74555C21.0384 8.7305 21.0792 8.72686 21.1185 8.73507C21.2813 8.76768 21.4373 8.82863 21.5797 8.91526C21.5962 8.9253 21.6143 8.93239 21.6332 8.93622C21.7315 8.96177 21.8279 8.99468 21.9214 9.03469C21.9894 9.06402 22.0594 9.08917 22.1273 9.11431C22.2026 9.13673 22.2726 9.17473 22.3328 9.22593C22.393 9.27712 22.4422 9.3404 22.4773 9.41183C22.5123 9.47678 22.5411 9.54593 22.5741 9.62135L22.675 9.83088C22.6997 9.87907 22.7244 9.92936 22.7512 9.97755C22.8401 10.1464 22.9434 10.307 23.06 10.4574C23.1222 10.5322 23.1793 10.6113 23.2309 10.6941C23.2831 10.7808 23.3246 10.8736 23.3544 10.9707C23.3894 11.0713 23.4203 11.1802 23.4635 11.2703C23.4926 11.339 23.5263 11.4055 23.5644 11.4694C23.5773 11.4877 23.5883 11.5074 23.5973 11.528Z" fill="#192733"/>
<path d="M26.1151 17.9269V17.9307L26.1133 17.9269H26.1151Z" fill="#192733"/>
<path d="M24.2192 13.0282C24.1771 12.9224 24.142 12.814 24.1142 12.7034C24.0895 12.6112 24.0607 12.5212 24.0339 12.4311C23.9961 12.3207 23.9514 12.213 23.9001 12.1084C23.8713 12.0455 23.8404 11.9869 23.8074 11.9261C23.7745 11.8653 23.7477 11.8297 23.7189 11.7794C23.6901 11.7292 23.6304 11.6181 23.583 11.5406C23.577 11.5276 23.5701 11.515 23.5624 11.5029C23.5243 11.439 23.4906 11.3725 23.4616 11.3038C23.4183 11.2074 23.3874 11.0943 23.3524 11.0042C23.3227 10.9072 23.2812 10.8143 23.2289 10.7276C23.1773 10.6448 23.1202 10.5657 23.058 10.4909C22.9414 10.3405 22.8381 10.1799 22.7492 10.0111C22.7224 9.96287 22.6977 9.91258 22.673 9.86439L22.5721 9.65487C22.5392 9.58782 22.5104 9.51868 22.4754 9.44535C22.4403 9.37392 22.3911 9.31062 22.3309 9.25943C22.2706 9.20823 22.2007 9.17024 22.1254 9.14783C22.0574 9.12268 21.9874 9.09754 21.9195 9.06821C21.8259 9.0282 21.7296 8.99527 21.6313 8.96972C21.6124 8.9659 21.5943 8.95882 21.5777 8.94878C21.4353 8.86215 21.2793 8.80118 21.1166 8.76858C21.0773 8.76037 21.0365 8.76401 20.9992 8.77906L20.9663 8.79582L20.9457 8.7623C20.8798 8.64706 20.8139 8.53182 20.7501 8.41449C20.6471 8.2301 20.5442 8.05201 20.4268 7.87392L20.3033 7.68115L20.2539 7.7503L20.3177 7.84878C20.3774 7.94306 20.4351 8.03734 20.4927 8.13372C20.5998 8.30763 20.6986 8.48154 20.7974 8.66592C20.8078 8.68803 20.8202 8.70907 20.8345 8.72877H20.818C20.8366 8.76858 20.8798 8.78744 20.8901 8.83982H20.8571C20.8406 8.84047 20.8246 8.84569 20.8109 8.85492C20.7971 8.86415 20.786 8.87704 20.7789 8.8922C20.7582 8.92915 20.7403 8.96768 20.7254 9.00744C20.7152 9.03368 20.7152 9.0629 20.7254 9.08915C20.7391 9.13106 20.7515 9.17297 20.7624 9.21487C20.7853 9.28679 20.8135 9.35683 20.8468 9.4244C20.8818 9.49564 20.9189 9.56687 20.9601 9.64649C20.9333 9.61087 20.9086 9.58154 20.888 9.55011C20.8674 9.51868 20.8263 9.46001 20.7974 9.41391L20.7707 9.3741C20.7336 9.30915 20.6986 9.2442 20.6595 9.18344C20.5916 9.08077 20.536 8.97391 20.4763 8.86286C20.4577 8.82934 20.4371 8.79582 20.4186 8.7602C20.4183 8.77552 20.4219 8.79067 20.4289 8.8042C20.4907 8.93411 20.5566 9.05982 20.6348 9.17925C20.6677 9.23372 20.7007 9.2882 20.7316 9.34268C20.7624 9.39716 20.783 9.43278 20.8118 9.47258C20.8942 9.58782 20.9766 9.70306 21.063 9.81411C21.1495 9.92516 21.2442 10.0425 21.3368 10.1556L21.4418 10.2834C21.4258 10.2508 21.4065 10.2199 21.3842 10.1912L21.2607 10.0278C21.2419 10.0047 21.2273 9.97849 21.2174 9.95029C21.2977 10.0383 21.378 10.1263 21.4542 10.2185C21.5624 10.3429 21.6501 10.4845 21.7136 10.6375C21.7424 10.6375 21.7424 10.6375 21.7507 10.6669C21.7507 10.6669 21.7507 10.648 21.7507 10.6396C21.7507 10.6313 21.7239 10.6187 21.7239 10.6082C21.7239 10.5977 21.7054 10.5558 21.6951 10.5286C21.6848 10.5013 21.6951 10.5118 21.6951 10.5034L21.8063 10.6836L21.8598 10.7779C21.8886 10.8282 21.9195 10.8764 21.9483 10.9246C21.9771 10.9728 21.9998 11.0189 22.0224 11.0671C22.0451 11.1152 22.076 11.1823 22.1027 11.241C22.1372 11.3056 22.1575 11.3771 22.1624 11.4505C22.1679 11.5952 22.1631 11.7402 22.148 11.8842C22.1337 11.9975 22.1255 12.1115 22.1233 12.2257H22.148C22.148 12.2509 22.148 12.2739 22.148 12.297C22.148 12.4206 22.148 12.5463 22.148 12.672C22.148 12.7977 22.1357 12.9444 22.1316 13.0911C22.1254 13.1957 22.1254 13.3007 22.1316 13.4054C22.1316 13.4535 22.1316 13.5017 22.1316 13.5499L22.2448 13.3907C22.2121 13.3469 22.196 13.2926 22.1995 13.2377C22.1995 13.2042 22.1995 13.1686 22.1995 13.133C22.2098 13.0198 22.2201 12.9046 22.2324 12.7914H22.2757L22.2324 12.76C22.2324 12.7453 22.2468 12.7328 22.2427 12.7265C22.2397 12.7099 22.2397 12.6928 22.2427 12.6762C22.2427 12.628 22.2427 12.5798 22.2427 12.5316C22.2427 12.3661 22.2427 12.1985 22.2427 12.033C22.2453 11.946 22.2528 11.8592 22.2654 11.7732H22.2901C22.4027 11.7984 22.5124 11.8356 22.6174 11.8842C22.7309 11.9388 22.8404 12.0019 22.9448 12.0728H22.9674C22.9657 12.0618 22.9598 12.052 22.951 12.0455C22.8703 11.9696 22.7811 11.9035 22.6854 11.8486C22.6051 11.8025 22.5207 11.7606 22.4404 11.7166C22.4301 11.7166 22.4157 11.7166 22.4218 11.6894C22.6317 11.6267 22.8557 11.6325 23.0621 11.7061C23.0621 11.6956 23.0621 11.6914 23.0518 11.6914C22.9927 11.6574 22.9277 11.6354 22.8604 11.6265C22.776 11.6139 22.6916 11.6076 22.6071 11.593C22.5277 11.5846 22.4477 11.5846 22.3683 11.593H22.3271H22.2942V11.5301C22.2941 11.5048 22.3012 11.48 22.3148 11.4588C22.3283 11.4376 22.3476 11.4209 22.3704 11.4107L22.4054 11.3981C22.5627 11.3446 22.7344 11.3567 22.883 11.4316L22.9201 11.4484C22.9156 11.436 22.9087 11.4246 22.8999 11.4149C22.8911 11.4052 22.8804 11.3973 22.8686 11.3918C22.744 11.3175 22.6012 11.2805 22.4568 11.285C22.3985 11.2862 22.3415 11.3036 22.2921 11.3353C22.2811 11.341 22.2693 11.3453 22.2571 11.3478C22.2571 11.3206 22.2571 11.2975 22.2571 11.2745C22.2571 11.2514 22.2427 11.2431 22.2448 11.2263C22.2469 11.2095 22.2571 11.1739 22.2613 11.1488C22.2622 11.1397 22.2622 11.1306 22.2613 11.1215C22.2613 11.1425 22.2468 11.1655 22.2366 11.1865C22.2303 11.1972 22.2227 11.2071 22.2139 11.2158L22.2263 11.2284L22.216 11.2137C22.216 11.2137 22.216 11.1991 22.216 11.1907C22.2176 11.1622 22.2269 11.1346 22.2427 11.1111C22.2653 11.0672 22.3005 11.0314 22.3436 11.0084L22.3848 10.9791C22.3375 10.9855 22.2938 11.0084 22.2613 11.044C22.2386 11.0671 22.2201 11.0922 22.1954 11.1215C22.204 11.0697 22.2222 11.0199 22.2489 10.9749L22.2057 10.9937C22.2057 10.9791 22.2057 10.9707 22.2057 10.9644C22.1789 10.9812 22.1768 11.0272 22.1398 11.0377C22.1386 10.9916 22.1448 10.9456 22.1583 10.9015C22.1644 10.8749 22.1763 10.85 22.193 10.8286C22.2098 10.8073 22.231 10.7899 22.2551 10.7779C22.3004 10.757 22.3436 10.736 22.3889 10.7193L22.426 10.7046C22.4164 10.7034 22.4067 10.7034 22.3971 10.7046C22.3531 10.7026 22.3091 10.709 22.2674 10.7234L22.1439 10.7779L22.0904 10.801L22.181 10.7255C22.1686 10.7255 22.1604 10.7255 22.1521 10.7381C22.1422 10.7474 22.1305 10.7546 22.1177 10.7592C22.105 10.7639 22.0915 10.766 22.078 10.7653C22.0854 10.7595 22.0917 10.7524 22.0966 10.7444C22.0966 10.7444 22.0801 10.7444 22.078 10.7276C22.076 10.7109 22.078 10.7046 22.0657 10.7067C22.0533 10.7088 22.043 10.6836 22.0307 10.6732C22.0183 10.6627 21.9977 10.6564 22.0142 10.6292C21.9813 10.6145 21.9792 10.5747 21.9648 10.5474V10.5307C21.9401 10.5013 21.9401 10.5013 21.9339 10.4741C21.931 10.4645 21.9269 10.4553 21.9216 10.4469C21.9216 10.4364 21.9216 10.4133 21.9216 10.4133C21.9216 10.4133 21.9216 10.384 21.901 10.3819C21.8804 10.3798 21.901 10.3526 21.8804 10.3505C21.8598 10.3484 21.8804 10.3212 21.8618 10.3149C21.8609 10.3049 21.8625 10.2948 21.8665 10.2857C21.8704 10.2765 21.8766 10.2685 21.8845 10.2625C21.8948 10.252 21.9092 10.2457 21.9195 10.2353H21.903L21.9277 10.1954C21.9277 10.1954 21.938 10.1745 21.9277 10.1661C21.8804 10.2122 21.833 10.2604 21.7651 10.2499C21.7641 10.2251 21.7698 10.2005 21.7816 10.1787C21.8113 10.1223 21.8443 10.0677 21.8804 10.0152C21.912 9.96926 21.9555 9.93302 22.006 9.91048L22.0986 9.87906C22.0986 9.87906 22.113 9.87906 22.113 9.8602C22.0776 9.84995 22.0403 9.84879 22.0044 9.85684C21.9684 9.86488 21.935 9.88188 21.9071 9.9063C21.8429 9.95332 21.7912 10.016 21.7569 10.0886C21.7506 10.1071 21.739 10.1232 21.7235 10.1348C21.7081 10.1464 21.6896 10.1529 21.6704 10.1535C21.6227 10.1595 21.5744 10.1522 21.5304 10.1326C21.4813 10.1085 21.4367 10.0759 21.3986 10.0362C21.3215 9.9631 21.2524 9.88158 21.1927 9.79315C21.1598 9.74286 21.131 9.6884 21.1001 9.63392C21.0635 9.55768 21.0332 9.47848 21.0095 9.39716C21.0065 9.38691 21.0065 9.37597 21.0095 9.36573L20.991 9.34058L21.0095 9.35735C21.0095 9.33221 21.0095 9.30915 20.9807 9.30077C20.9809 9.29589 20.9809 9.29099 20.9807 9.28611C20.9723 9.27293 20.9666 9.25811 20.9641 9.2426C20.9617 9.22709 20.9624 9.21122 20.9663 9.19601C20.9609 9.19203 20.9569 9.1865 20.9547 9.18014C20.9525 9.17379 20.9522 9.16691 20.9539 9.1604V9.12268C20.9508 9.09484 20.9508 9.06671 20.9539 9.03887C20.9543 9.01637 20.9606 8.99439 20.9722 8.97522C20.9838 8.95606 21.0002 8.94041 21.0198 8.92991C21.0409 8.95125 21.054 8.97941 21.0568 9.00953L21.0816 9.14783C21.0829 9.16011 21.087 9.17193 21.0934 9.18243C21.0998 9.19294 21.1084 9.20186 21.1186 9.20858C21.1186 9.17715 21.1186 9.14992 21.1186 9.12268C21.1186 9.09545 21.1186 9.0703 21.1186 9.04306C21.1186 9.01583 21.1186 8.98858 21.1063 8.96135C21.0987 8.93405 21.0945 8.90589 21.0939 8.87753C21.1464 8.88609 21.1981 8.89941 21.2483 8.91734C21.3931 8.97076 21.5312 9.04107 21.6601 9.12687C21.6488 9.21996 21.6022 9.30489 21.5304 9.36363H21.5427C21.5761 9.34967 21.6063 9.3289 21.6314 9.30259C21.6566 9.27628 21.6761 9.245 21.6889 9.21068C21.7136 9.14782 21.7095 9.12686 21.6642 9.08706C21.6916 9.08355 21.7194 9.08791 21.7445 9.09963C21.8701 9.14572 21.9957 9.18973 22.1171 9.24002C22.2678 9.30198 22.3914 9.41733 22.4651 9.56478C22.5516 9.73239 22.6401 9.89582 22.7286 10.0613L22.8316 10.2709C22.8752 10.3612 22.9254 10.448 22.9818 10.5307L23.0992 10.692C23.1502 10.7592 23.1977 10.8291 23.2413 10.9015C23.2968 11.0042 23.3401 11.1111 23.3874 11.2221C23.4348 11.3332 23.4966 11.4777 23.5604 11.5992C23.5671 11.6143 23.5747 11.629 23.583 11.6432C23.6551 11.769 23.723 11.8947 23.7889 12.0204C23.8599 12.1527 23.9145 12.2935 23.9516 12.4394L24.0689 12.8585C24.1074 13.0062 24.1671 13.1474 24.246 13.2775L24.3098 13.1937C24.28 13.1364 24.2546 13.0769 24.2336 13.0156L24.2192 13.0282ZM20.7563 9.13316C20.7439 9.1143 20.7563 9.09544 20.7563 9.07658C20.7789 9.07868 20.7851 9.09544 20.7686 9.11429L20.7563 9.13316ZM22.078 10.9372C22.0978 10.9061 22.1072 10.8693 22.1048 10.8324L22.183 10.7884C22.1412 10.8438 22.1091 10.9062 22.0883 10.9728C22.0616 10.9518 22.0616 10.9518 22.0492 10.9078L22.078 10.9372ZM22.0142 10.845L22.0245 10.8575C22.0249 10.8527 22.0249 10.8477 22.0245 10.8429L22.0142 10.845ZM21.9339 10.6962C21.9398 10.7023 21.9447 10.7094 21.9483 10.7172L21.936 10.6983L21.9339 10.6962ZM21.7733 10.3149C21.7877 10.3463 21.8042 10.3777 21.8166 10.4112L21.8783 10.5684C21.8783 10.5684 21.866 10.5684 21.8639 10.5684L21.7486 10.3295C21.7486 10.3295 21.7486 10.3191 21.7486 10.3128C21.753 10.3106 21.758 10.3102 21.7627 10.3118C21.7673 10.3134 21.7711 10.3167 21.7733 10.3212V10.3149ZM21.7095 10.5118C21.6724 10.4951 21.6601 10.4594 21.6436 10.4238L21.7095 10.5118ZM20.8407 8.93201C20.8407 8.90477 20.853 8.8901 20.8695 8.87543C20.8695 8.89429 20.851 8.91315 20.8407 8.93201C20.8358 8.94518 20.8296 8.95782 20.8221 8.96972C20.818 8.95296 20.8304 8.94668 20.8407 8.9383V8.93201ZM20.8057 9.06821C20.8201 9.08706 20.8201 9.08706 20.8221 9.14573C20.8221 9.14573 20.8077 9.14572 20.8057 9.12896C20.8035 9.11088 20.8021 9.0927 20.8016 9.07448L20.8057 9.06821ZM20.9086 9.47258C20.9026 9.46498 20.8978 9.4565 20.8942 9.44744C20.8757 9.39297 20.8551 9.33848 20.8386 9.28191C20.8221 9.22534 20.8221 9.21696 20.8139 9.18344C20.811 9.17834 20.8095 9.17256 20.8095 9.16668C20.8095 9.16079 20.811 9.15501 20.8139 9.14991C20.8139 9.17715 20.8263 9.2023 20.8345 9.22745L20.8901 9.41391C20.8932 9.41893 20.8948 9.42475 20.8948 9.43068C20.8948 9.43661 20.8932 9.44242 20.8901 9.44744L20.9271 9.48516C20.9148 9.49982 20.9148 9.48515 20.9086 9.47049V9.47258Z" fill="black"/>
<path d="M20.3179 7.68741L20.2685 7.75655L20.147 7.56798L20.0955 7.50093C19.9754 7.34934 19.8634 7.19126 19.7599 7.02741C19.7472 7.00853 19.7368 6.98812 19.7291 6.96665C19.762 6.98341 19.7743 7.01903 19.8032 7.04208C19.805 7.03522 19.805 7.02798 19.8032 7.02112C19.7323 6.88434 19.6757 6.74038 19.6343 6.5916C19.5939 6.44935 19.5458 6.30945 19.4902 6.17255L19.5458 6.09503L19.5643 6.13693C19.627 6.28834 19.68 6.44371 19.7229 6.60208C19.7707 6.77047 19.8356 6.93337 19.9164 7.08817C19.9557 7.1692 20.0033 7.24575 20.0585 7.31655C20.1511 7.43808 20.2355 7.56169 20.3179 7.68741Z" fill="#192733"/>
<path d="M23.6521 13.9082C23.6172 13.9113 23.582 13.9113 23.5471 13.9082C23.5375 13.907 23.5279 13.907 23.5183 13.9082C23.4833 13.9082 23.4462 13.9228 23.4133 13.9333C23.2787 13.9674 23.1388 13.9745 23.0015 13.9543C22.9537 13.9466 22.9068 13.934 22.8615 13.9165C22.8615 13.9165 22.8492 13.9165 22.843 13.8998C22.8512 13.8988 22.8595 13.8988 22.8677 13.8998C22.9128 13.9164 22.9599 13.927 23.0077 13.9312C23.0908 13.9378 23.1743 13.9264 23.2527 13.8977C23.3474 13.8684 23.438 13.8432 23.5327 13.8202C23.5277 13.8163 23.5215 13.8141 23.5152 13.8141C23.5089 13.8141 23.5027 13.8163 23.4977 13.8202C23.4663 13.8306 23.4324 13.8306 23.4009 13.8202C23.3783 13.8118 23.3536 13.8118 23.3309 13.8202H23.3165C23.3174 13.8118 23.3174 13.8034 23.3165 13.795L23.1827 13.8432C23.0943 13.8781 22.9981 13.8875 22.9048 13.8705C22.7835 13.8449 22.6695 13.7919 22.5712 13.7154C22.4844 13.6467 22.4032 13.571 22.3283 13.4891C22.302 13.4598 22.2772 13.429 22.2542 13.3969L22.1409 13.5562C22.142 13.575 22.142 13.5939 22.1409 13.6127C22.1382 13.8745 22.1001 14.1347 22.0277 14.3859L21.9351 14.7211C21.9351 14.7421 21.9351 14.7651 21.9227 14.7861C21.8877 14.9118 21.8527 15.0375 21.8136 15.1632C21.7992 15.2114 21.7786 15.2596 21.7601 15.3057C21.7548 15.3206 21.7463 15.3342 21.7354 15.3455C21.7063 15.3748 21.6832 15.4097 21.6674 15.4482C21.6491 15.4908 21.6223 15.529 21.5886 15.5604C21.5549 15.5918 21.5151 15.6156 21.4718 15.6305C21.4224 15.6444 21.3699 15.6405 21.323 15.6195C21.2761 15.5985 21.2378 15.5616 21.2145 15.5152L21.1774 15.4377C21.1217 15.2927 21.113 15.1334 21.1527 14.983L21.1651 14.9244C21.1795 14.8636 21.1939 14.8049 21.2062 14.7442C21.2351 14.5975 21.2598 14.4508 21.2865 14.3042C21.2865 14.3042 21.2865 14.2811 21.2865 14.2748L21.268 14.5703L21.2556 14.7798L21.2371 15.1171C21.233 15.1799 21.233 15.2429 21.2371 15.3057C21.2371 15.3455 21.2598 15.3623 21.2927 15.3602L21.3133 15.335C21.3133 15.335 21.3133 15.3224 21.3133 15.3204C21.3133 15.3183 21.3339 15.3078 21.3339 15.291L21.2906 15.2638C21.2984 15.2585 21.3053 15.2522 21.3112 15.2449L21.2989 15.224L21.3298 15.2114C21.3174 15.1967 21.2968 15.1967 21.2927 15.1737L21.3936 15.1884C21.3936 15.1884 21.4101 15.1884 21.4101 15.1779L21.2865 15.1444V15.0626C21.2865 15.0459 21.2865 15.0438 21.3009 15.0417C21.3154 15.0396 21.3215 15.0564 21.3298 15.0417C21.2762 15.0207 21.2762 15.0207 21.2804 14.9725L21.3751 14.983C21.3607 14.971 21.3438 14.9624 21.3256 14.9579C21.3045 14.9547 21.2854 14.9434 21.2721 14.9264H21.2845C21.3112 14.9097 21.3154 14.9013 21.303 14.8783C21.2906 14.8552 21.303 14.8783 21.2927 14.8636C21.2824 14.8489 21.2927 14.8636 21.2927 14.8489H21.3154H21.3421L21.2906 14.8007C21.2896 14.7896 21.2896 14.7784 21.2906 14.7672C21.2906 14.74 21.2906 14.74 21.3133 14.7442H21.3318C21.3189 14.7377 21.3071 14.7292 21.2968 14.719C21.2955 14.7178 21.2945 14.7164 21.2937 14.7148C21.293 14.7131 21.2926 14.7114 21.2926 14.7096C21.2926 14.7078 21.293 14.706 21.2937 14.7044C21.2945 14.7028 21.2955 14.7013 21.2968 14.7002H21.3112H21.3277C21.3165 14.6835 21.3092 14.6645 21.3063 14.6445C21.3035 14.6245 21.3051 14.6041 21.3112 14.5849H21.3524L21.3174 14.5598C21.3151 14.5574 21.3133 14.5547 21.312 14.5516C21.3108 14.5486 21.3101 14.5453 21.3101 14.542C21.3101 14.5387 21.3108 14.5354 21.312 14.5323C21.3133 14.5293 21.3151 14.5265 21.3174 14.5242C21.3277 14.5242 21.3442 14.5242 21.3524 14.5095L21.3133 14.4739L21.3277 14.4592C21.3277 14.4592 21.3421 14.4592 21.3462 14.4592L21.3277 14.4173L21.3565 14.3943L21.3359 14.3733C21.3396 14.3374 21.3451 14.3018 21.3524 14.2665C21.3892 14.2583 21.4276 14.265 21.4595 14.2853C21.4767 14.2949 21.4946 14.3033 21.513 14.3104C21.5408 14.323 21.5698 14.3329 21.5995 14.3398C21.6427 14.3499 21.6869 14.3549 21.7312 14.3545C21.7312 14.3545 21.7312 14.3545 21.7518 14.3419H21.7271C21.7065 14.3371 21.6865 14.3301 21.6674 14.3209L21.6324 14.3021L21.5521 14.2581C21.5243 14.2454 21.5009 14.2243 21.4851 14.1977C21.4692 14.1712 21.4618 14.1403 21.4636 14.1093C21.4639 14.0806 21.4695 14.0521 21.4801 14.0255V13.9857C21.4801 13.9857 21.4677 13.9857 21.4656 13.9962L21.4471 14.0381C21.4293 14.0725 21.4237 14.1121 21.4312 14.1503C21.4387 14.1884 21.4589 14.2228 21.4883 14.2476L21.5459 14.2937C21.5336 14.2945 21.5212 14.2945 21.5089 14.2937C21.4738 14.2802 21.4436 14.2561 21.4224 14.2245C21.3734 14.1451 21.3503 14.052 21.3565 13.9584C21.3565 13.7657 21.3751 13.5708 21.3833 13.3781C21.3915 13.1853 21.4162 12.959 21.4306 12.7495C21.4383 12.6521 21.4563 12.5559 21.4842 12.4625C21.5048 12.387 21.5233 12.3116 21.5398 12.2362C21.5501 12.2005 21.5562 12.1628 21.5645 12.1251C21.5785 12.0491 21.5999 11.9747 21.6283 11.903C21.6283 11.8884 21.6468 11.8737 21.6283 11.8569C21.5835 11.9206 21.5494 11.9914 21.5274 12.0665C21.5172 12.1056 21.5049 12.144 21.4904 12.1817C21.4508 12.273 21.4192 12.3677 21.3956 12.4645C21.3627 12.607 21.3339 12.7516 21.303 12.8836C21.3009 12.8982 21.3009 12.913 21.303 12.9276C21.3066 12.9343 21.3085 12.9419 21.3085 12.9496C21.3085 12.9573 21.3066 12.9648 21.303 12.9716C21.303 13.0009 21.303 13.0324 21.303 13.0617L21.2659 13.4242C21.2659 13.4933 21.2495 13.5604 21.2433 13.6337C21.2433 13.6525 21.2268 13.6526 21.2186 13.6651C21.2176 13.6693 21.2176 13.6736 21.2186 13.6777C21.2083 13.8223 21.198 13.9668 21.1898 14.1135C21.1776 14.324 21.1353 14.5315 21.0642 14.7295C21.0518 14.7693 21.0374 14.8091 21.0251 14.8489C20.9942 14.9495 20.9633 15.0584 20.9304 15.1485V15.1674C20.9253 15.1883 20.9144 15.2073 20.8991 15.2221C20.8838 15.237 20.8646 15.2471 20.8439 15.2512C20.8095 15.2595 20.7742 15.2637 20.7389 15.2638C20.6594 15.2609 20.5802 15.2518 20.5021 15.2366H20.4404C20.4378 15.2366 20.4353 15.2361 20.4329 15.235C20.4306 15.2339 20.4286 15.2323 20.427 15.2303C20.4254 15.2282 20.4243 15.2258 20.4237 15.2233C20.4232 15.2208 20.4232 15.2181 20.4239 15.2156C20.4239 15.2156 20.4239 15.1925 20.4383 15.1904C20.4544 15.1839 20.4709 15.1783 20.4877 15.1737C20.4734 15.1707 20.4596 15.1658 20.4465 15.159C20.4465 15.159 20.4465 15.159 20.4465 15.1465L20.4836 15.1171L20.4651 15.1004C20.4651 15.071 20.4856 15.0459 20.4754 15.0165L20.498 14.9977L20.4774 14.9746L20.4959 14.9202C20.4959 14.9202 20.4959 14.8992 20.4754 14.9013V14.9264C20.4582 15.0092 20.4369 15.091 20.4115 15.1716L20.3683 15.3245C20.3683 15.3392 20.358 15.3539 20.3683 15.3665C20.3998 15.3562 20.4336 15.3562 20.4651 15.3665H20.5104C20.5227 15.3665 20.5371 15.3665 20.5495 15.3665C20.5042 15.3413 20.4465 15.356 20.4012 15.3245C20.4012 15.3057 20.4156 15.2868 20.4239 15.2701H20.4939L20.743 15.2952C20.7595 15.2952 20.778 15.2952 20.7904 15.3099C20.7934 15.312 20.797 15.3131 20.8006 15.3131C20.8043 15.3131 20.8079 15.312 20.8109 15.3099C20.8346 15.3041 20.858 15.2972 20.8809 15.2889H20.9077C20.8714 15.3725 20.8092 15.4416 20.7306 15.4859C20.6883 15.5092 20.6409 15.5214 20.5927 15.5214C20.5445 15.5214 20.4971 15.5092 20.4548 15.4859C20.4438 15.4808 20.4334 15.4745 20.4239 15.467C20.3893 15.4361 20.3621 15.3976 20.3443 15.3544C20.3265 15.3112 20.3185 15.2645 20.3209 15.2177C20.3209 15.1506 20.3209 15.0815 20.3209 15.0082C20.3209 14.9348 20.3395 14.8489 20.3456 14.7693C20.3559 14.6373 20.3662 14.5053 20.3745 14.3733C20.3827 14.2413 20.3951 14.0653 20.3951 13.9124C20.3951 13.6756 20.4156 13.4388 20.4383 13.2C20.4609 12.9611 20.4836 12.6908 20.4898 12.4352C20.4906 12.287 20.5079 12.1394 20.5412 11.9952V11.9596C20.5137 12.0153 20.4937 12.0745 20.4815 12.1356C20.4725 12.1957 20.4573 12.2547 20.4362 12.3116C20.4283 12.2751 20.4234 12.2379 20.4218 12.2006C20.4218 12.2006 20.4095 12.2005 20.4095 12.2173C20.4084 12.2368 20.4084 12.2564 20.4095 12.276C20.4095 12.3346 20.4095 12.3933 20.4095 12.452C20.3971 12.6615 20.3724 12.8878 20.3456 13.1036C20.3148 13.3886 20.2962 13.6756 20.2859 13.9605C20.2859 14.0863 20.2674 14.2141 20.2592 14.3419C20.2592 14.3565 20.2592 14.3733 20.2427 14.3838C20.2262 14.3943 20.2427 14.411 20.2427 14.4257L20.1995 14.8447V14.9181C20.1995 14.9181 20.1995 14.9369 20.1871 14.9411C20.1862 14.9335 20.1862 14.9257 20.1871 14.9181C20.1974 14.7567 20.2098 14.5954 20.2304 14.4341C20.2304 14.455 20.2159 14.476 20.2139 14.4969L20.1583 14.9977C20.1572 15.0237 20.1494 15.049 20.1356 15.071H20.1604C20.1592 15.078 20.1592 15.085 20.1604 15.092C20.1625 15.106 20.16 15.1204 20.1533 15.1329C20.1466 15.1454 20.1361 15.1553 20.1233 15.1611C20.0559 15.2105 19.9757 15.2389 19.8927 15.2428C19.8645 15.2464 19.836 15.2429 19.8094 15.2326C19.7829 15.2224 19.7592 15.2058 19.7404 15.1842L19.7198 15.1695C19.7012 15.1863 19.6992 15.1884 19.693 15.1821L19.6354 15.1318C19.6354 15.1318 19.6354 15.1318 19.6354 15.1192H19.6662C19.6674 15.1039 19.6674 15.0885 19.6662 15.0731C19.6662 15.048 19.6518 15.0207 19.6456 14.9935C19.6109 14.81 19.5999 14.6226 19.6127 14.4362C19.6137 14.4187 19.6137 14.4012 19.6127 14.3838C19.6107 14.3659 19.6123 14.3478 19.6172 14.3306C19.6222 14.3133 19.6304 14.2972 19.6415 14.2832H19.6559C19.6811 14.3126 19.7132 14.335 19.7492 14.3482C19.7853 14.3614 19.824 14.365 19.8618 14.3586C19.9236 14.3515 19.9836 14.333 20.0389 14.3042C20.0389 14.3042 20.0574 14.3042 20.0595 14.2832L19.9998 14.2958C19.942 14.3073 19.8825 14.3073 19.8248 14.2958C19.782 14.2905 19.7411 14.275 19.7053 14.2506C19.6696 14.2263 19.6399 14.1936 19.6189 14.1554C19.5814 14.0821 19.5603 14.0012 19.5571 13.9186C19.5571 13.7699 19.5571 13.619 19.5571 13.4703C19.5571 13.3655 19.5674 13.2607 19.5736 13.1539C19.5798 12.9555 19.5963 12.7576 19.623 12.5609C19.6377 12.4632 19.6453 12.3644 19.6456 12.2655C19.6456 12.2146 19.6518 12.1639 19.6642 12.1146C19.694 12.004 19.6982 11.8878 19.6765 11.7752C19.6662 11.727 19.6621 11.6767 19.6559 11.6285C19.6457 11.5767 19.6457 11.5233 19.6559 11.4714C19.6569 11.454 19.6569 11.4365 19.6559 11.419C19.6559 11.419 19.6559 11.4065 19.6456 11.4002C19.6466 11.4064 19.6466 11.4128 19.6456 11.419C19.6167 11.5017 19.611 11.591 19.6292 11.6767C19.6292 11.7166 19.6436 11.7584 19.6498 11.7983C19.6611 11.8606 19.6611 11.9245 19.6498 11.9868C19.6395 12.0371 19.6312 12.0874 19.6209 12.1377C19.6209 12.1377 19.6209 12.1565 19.6065 12.1565C19.6065 12.0853 19.5942 12.0141 19.5839 11.947C19.5736 11.88 19.5592 11.8213 19.5468 11.7584H19.5365C19.5139 11.7773 19.5262 11.8087 19.5098 11.836C19.5071 11.8273 19.5036 11.8189 19.4995 11.8108L19.4501 11.727C19.4501 11.727 19.4398 11.727 19.4315 11.727C19.4343 11.7391 19.4377 11.751 19.4418 11.7626C19.4521 11.8097 19.4659 11.8559 19.483 11.9009C19.4977 11.9338 19.5055 11.9695 19.5056 12.0057C19.5056 12.0392 19.5056 12.0748 19.5056 12.1104C19.5056 12.2278 19.5056 12.3451 19.5056 12.4645C19.5084 12.5631 19.5049 12.6618 19.4954 12.76C19.4954 12.8354 19.4809 12.9129 19.4768 12.9904C19.4645 13.1518 19.4562 13.3152 19.4439 13.4786C19.4368 13.6489 19.4133 13.818 19.3739 13.9836C19.3543 14.037 19.3543 14.0957 19.3739 14.1491C19.3646 14.1546 19.3569 14.1626 19.3518 14.1722C19.3467 14.1818 19.3444 14.1927 19.3451 14.2036C19.3451 14.2392 19.3451 14.2727 19.3451 14.3084C19.3458 14.3348 19.3416 14.3611 19.3327 14.3859L19.1618 14.3733C19.1104 14.3733 19.0959 14.3733 19.0856 14.4424C19.0856 14.4424 19.0856 14.455 19.0856 14.4613C19.076 14.572 19.0997 14.6831 19.1536 14.7798C19.1617 14.7748 19.1709 14.7721 19.1804 14.7721C19.1898 14.7721 19.1991 14.7748 19.2071 14.7798C19.2339 14.7945 19.2648 14.7798 19.2956 14.7484L19.2401 14.7609C19.2303 14.763 19.22 14.7614 19.2113 14.7564C19.2026 14.7514 19.196 14.7433 19.1927 14.7337C19.1556 14.6402 19.134 14.5411 19.1289 14.4403C19.1264 14.4279 19.1264 14.4151 19.1289 14.4026C19.1916 14.3983 19.2546 14.4025 19.3162 14.4152C19.3162 14.4969 19.3162 14.5744 19.3327 14.652C19.3341 14.713 19.3396 14.7739 19.3492 14.8343C19.3535 14.8523 19.3513 14.8713 19.343 14.8879C19.3347 14.9044 19.3208 14.9174 19.3039 14.9244C19.285 14.9295 19.2651 14.9295 19.2462 14.9244C19.2065 14.911 19.1728 14.8835 19.1515 14.8468C19.113 14.7822 19.0859 14.7114 19.0712 14.6373C19.0568 14.5682 19.0465 14.499 19.0362 14.4278C19.0265 14.3569 19.0113 14.2868 18.9909 14.2183C18.9731 14.1666 18.9566 14.1121 18.9415 14.0548C18.9189 13.9543 18.8962 13.8453 18.8777 13.7489C18.8777 13.728 18.8633 13.7049 18.8777 13.684C18.8921 13.663 18.8777 13.7133 18.8983 13.7154C18.9188 13.7132 18.9395 13.7132 18.9601 13.7154C19.0143 13.7332 19.0726 13.7332 19.1268 13.7154L19.1371 13.6986C19.099 13.7033 19.0604 13.6985 19.0245 13.6847C18.9887 13.6708 18.9566 13.6483 18.9312 13.619H18.9209C18.9209 13.619 18.9312 13.619 18.9354 13.619C18.9821 13.6372 19.0315 13.6471 19.0815 13.6484H19.1124L19.0156 13.6002C18.9812 13.5843 18.9508 13.5605 18.9269 13.5307C18.9029 13.5009 18.8861 13.4659 18.8777 13.4284C18.8663 13.385 18.8581 13.3409 18.853 13.2964C18.8561 13.2563 18.8498 13.2161 18.8345 13.179C18.8345 13.179 18.8345 13.179 18.8345 13.1665C18.8345 13.1539 18.8345 13.1036 18.8201 13.0743C18.8171 13.0638 18.8114 13.0544 18.8036 13.047C18.7974 13.0711 18.7974 13.0963 18.8036 13.1204C18.8036 13.1979 18.8139 13.2754 18.8201 13.3634C18.8041 13.3408 18.7955 13.3137 18.7954 13.2859C18.7686 13.1015 18.748 12.915 18.7356 12.7244C18.7356 12.5924 18.713 12.4625 18.7027 12.3305C18.6924 12.1985 18.6862 12.0455 18.678 11.9009C18.678 11.8884 18.678 11.8695 18.678 11.8632C18.678 11.8925 18.678 11.9261 18.6636 11.9575C18.6492 11.9889 18.6636 11.9826 18.6512 11.9889C18.6502 11.9708 18.6502 11.9526 18.6512 11.9345C18.6512 11.8905 18.6512 11.8465 18.6409 11.8045C18.6306 11.7626 18.6245 11.6851 18.6142 11.6264C18.5998 11.6097 18.6142 11.5908 18.6142 11.572V11.5447H18.5668C18.54 11.4297 18.5028 11.3175 18.4556 11.2095C18.4556 11.2514 18.4556 11.2786 18.4556 11.3059C18.4592 11.3897 18.4781 11.4721 18.5112 11.5489C18.5199 11.5676 18.5261 11.5873 18.5298 11.6076C18.5309 11.6201 18.5309 11.6328 18.5298 11.6453C18.5195 11.6244 18.5133 11.616 18.5092 11.6055C18.4906 11.5636 18.4742 11.5175 18.4536 11.4756C18.433 11.4337 18.4268 11.4295 18.4145 11.4064C18.3568 11.3017 18.3012 11.1969 18.2436 11.0943C18.2045 11.027 18.1701 10.957 18.1406 10.8847C18.1406 10.868 18.1159 10.8575 18.1221 10.8345C18.1283 10.8114 18.0974 10.7988 18.0954 10.7779C18.0933 10.7711 18.0933 10.7638 18.0954 10.7569L18.0789 10.7276H18.0933C18.0789 10.6962 18.0624 10.6626 18.048 10.6291C18.0159 10.561 17.9877 10.4911 17.9636 10.4196C17.9451 10.3546 17.9224 10.2918 17.9018 10.2289L17.8215 9.9754C17.7317 9.70061 17.6574 9.42078 17.5992 9.1373C17.5786 9.03883 17.5601 8.94035 17.5456 8.83978L17.4283 9.00322C17.4887 9.34288 17.5684 9.67869 17.6671 10.0089C17.696 10.1139 17.7318 10.2168 17.7742 10.3169C17.7742 10.3169 17.7742 10.3295 17.7742 10.3358H17.7515C17.6342 10.3356 17.5208 10.3788 17.4324 10.4573C17.3656 10.5055 17.309 10.5668 17.2656 10.6375C17.2222 10.7051 17.2004 10.7847 17.2034 10.8654C17.2063 10.9461 17.2338 11.0239 17.2821 11.088C17.3203 11.1328 17.3682 11.168 17.4221 11.1906C17.5004 11.2242 17.5786 11.2556 17.6548 11.2912C17.677 11.3003 17.6984 11.3115 17.7186 11.3247C17.735 11.334 17.7502 11.3453 17.7639 11.3583L17.7454 11.3813C17.6881 11.4445 17.639 11.515 17.5992 11.5908C17.5346 11.7043 17.5066 11.8354 17.5189 11.9659C17.5215 12.021 17.536 12.0749 17.5613 12.1237C17.5865 12.1726 17.6219 12.2153 17.6651 12.2487C17.7377 12.2989 17.8245 12.3232 17.9121 12.3179H18.0048L17.8709 12.5274C17.8138 12.6065 17.7867 12.704 17.7948 12.8019C17.7937 12.813 17.7937 12.8243 17.7948 12.8354C17.7984 12.894 17.8158 12.9508 17.8456 13.0012C17.8753 13.0515 17.9165 13.0938 17.9656 13.1245C17.9988 13.1457 18.0378 13.1553 18.0768 13.1518C18.1098 13.1518 18.1448 13.1518 18.1777 13.1413C18.2372 13.1325 18.2979 13.1435 18.3506 13.1727C18.4607 13.2333 18.5654 13.3034 18.6636 13.3823C18.6861 13.3965 18.7023 13.419 18.7089 13.4451L18.6718 13.4724C18.5993 13.52 18.5305 13.5733 18.4659 13.6316C18.4309 13.6633 18.4029 13.7024 18.3841 13.7462C18.3653 13.79 18.356 13.8374 18.3568 13.8851C18.3518 13.9934 18.3854 14.0998 18.4515 14.1847C18.4734 14.2188 18.5044 14.2456 18.541 14.262C18.5776 14.2783 18.618 14.2835 18.6574 14.2769L18.7624 14.2539L18.8695 14.2245C18.8876 14.2398 18.8994 14.2615 18.9024 14.2853C18.9333 14.4026 18.9662 14.5179 18.9971 14.6352C19.0197 14.7175 19.0515 14.797 19.0918 14.872C19.1225 14.926 19.1674 14.9703 19.2215 14.9998C19.2407 15.0083 19.2607 15.0146 19.2812 15.0186C19.3104 15.0207 19.3395 15.0136 19.3646 14.9982C19.3897 14.9829 19.4094 14.96 19.4212 14.9327C19.4212 14.9202 19.4212 14.8992 19.4439 14.895C19.4665 14.8908 19.4439 14.895 19.4439 14.9118C19.4527 14.9683 19.4672 15.0238 19.4871 15.0773C19.5096 15.1521 19.5541 15.2179 19.6148 15.2659C19.6808 15.3159 19.76 15.3446 19.8422 15.3483C19.9244 15.352 20.0058 15.3306 20.0759 15.2868L20.1254 15.2575C20.1398 15.2575 20.1501 15.2303 20.1706 15.224L20.2098 15.3602C20.2248 15.4202 20.2567 15.4745 20.3018 15.5162C20.3468 15.5579 20.4028 15.5852 20.463 15.5948H20.4795C20.5487 15.6058 20.6196 15.5986 20.6854 15.5739C20.7692 15.5419 20.8412 15.484 20.8912 15.4084C20.923 15.3658 20.9506 15.3202 20.9736 15.2722L20.9901 15.2554C20.9888 15.2798 20.9888 15.3043 20.9901 15.3287C20.9879 15.3475 20.9879 15.3665 20.9901 15.3853C21.0159 15.4701 21.0526 15.5512 21.0992 15.6263C21.1214 15.662 21.1516 15.6919 21.1874 15.7134C21.2232 15.7349 21.2636 15.7474 21.3051 15.7499C21.3623 15.754 21.4198 15.7451 21.4732 15.7237C21.5267 15.7023 21.5747 15.669 21.6139 15.6263L21.6633 15.576L21.7086 15.5194C21.7202 15.5226 21.7313 15.5275 21.7415 15.5341C21.7786 15.5508 21.8136 15.5718 21.8506 15.5865L22.3139 15.7687L22.3736 15.687L22.3036 15.664C22.2144 15.636 22.1279 15.6046 22.0442 15.5697C22.0042 15.5571 21.9671 15.5364 21.9351 15.5089L21.9804 15.467C21.9804 15.4796 21.9804 15.488 21.9804 15.4964L22.0174 15.4796C22.0174 15.5005 22.0071 15.5173 22.003 15.5362C21.9989 15.555 22.0298 15.5152 22.0401 15.5068C22.0504 15.4985 22.0524 15.5068 22.0586 15.5068C22.0648 15.5068 22.0421 15.5383 22.0586 15.555C22.0751 15.5718 22.0833 15.5194 22.1101 15.5194C22.1368 15.5194 22.1101 15.5466 22.1101 15.5634L22.1451 15.5341C22.1615 15.5341 22.1595 15.5613 22.1821 15.5487C22.2048 15.5362 22.2006 15.5718 22.2171 15.5487C22.2336 15.5257 22.2171 15.5487 22.2295 15.5487V15.5865L22.2727 15.5571L22.3056 15.5823C22.3056 15.5823 22.3056 15.5823 22.3159 15.5823C22.3262 15.5823 22.3448 15.5823 22.3571 15.6011C22.3695 15.62 22.3839 15.6011 22.3962 15.6011L22.4333 15.6137L22.4909 15.5362L22.4374 15.5173C22.3468 15.4859 22.2562 15.4524 22.1677 15.4167C22.1306 15.4021 22.0956 15.379 22.0586 15.3602C22.0531 15.3574 22.0487 15.3527 22.0464 15.3469C22.0442 15.3411 22.0441 15.3346 22.0462 15.3287C22.0462 15.3287 22.0277 15.3413 22.0195 15.3287C22.0112 15.3162 22.0709 15.2533 22.0956 15.2072H22.0771L22.0421 15.2533C22.0256 15.2784 22.0215 15.2805 21.9804 15.2931C22.0022 15.2554 22.0263 15.219 22.0524 15.1842C22.0256 15.1632 22.0256 15.1632 21.9762 15.1842C22.0025 15.1525 22.0338 15.1256 22.0689 15.1045C22.0442 15.1045 22.0318 15.1045 22.0154 15.1213H21.9927C22.0007 15.1039 22.0128 15.0887 22.0279 15.077C22.0429 15.0653 22.0605 15.0575 22.0792 15.0543C22.0754 15.051 22.0707 15.0492 22.0658 15.0492C22.0609 15.0492 22.0561 15.051 22.0524 15.0543C22.0344 15.0662 22.014 15.0741 21.9927 15.0773C21.9927 15.0543 22.0256 15.048 22.0298 15.0228H22.0051C22.0041 15.0068 22.0041 14.9907 22.0051 14.9746L22.073 14.939C22.073 14.9244 22.0545 14.939 22.0442 14.939C22.0339 14.939 22.0071 14.9579 21.9824 14.9516L22.0298 14.8929L22.0092 14.872C22.0081 14.8701 22.0075 14.8679 22.0075 14.8657C22.0075 14.8635 22.0081 14.8613 22.0092 14.8594C22.0128 14.8516 22.0176 14.8445 22.0236 14.8385L22.0524 14.8154L22.0174 14.8028L22.0627 14.7735L22.0318 14.7505C22.0565 14.7337 22.0792 14.7127 22.0998 14.696H22.0462C22.0483 14.6884 22.0518 14.6813 22.0565 14.675C22.0716 14.6568 22.0889 14.6406 22.108 14.6268C22.1493 14.5985 22.1861 14.5639 22.2171 14.5242C22.1796 14.563 22.1328 14.5912 22.0812 14.6059L22.1595 14.5284C22.2233 14.4676 22.2233 14.4676 22.2315 14.4403C22.2006 14.4571 22.1759 14.4885 22.1306 14.4948C22.1759 14.4592 22.213 14.432 22.248 14.4006C22.283 14.3691 22.3118 14.3314 22.3448 14.2979C22.3361 14.3017 22.3284 14.3074 22.3221 14.3146C22.2566 14.3839 22.1763 14.437 22.0874 14.4697H22.0751C22.0739 14.4599 22.0739 14.4501 22.0751 14.4403C22.0739 14.4327 22.0739 14.4249 22.0751 14.4173C22.1351 14.4101 22.1922 14.387 22.2406 14.3502C22.2891 14.3134 22.3271 14.2643 22.3509 14.2078L22.2851 14.2727C22.2668 14.2906 22.2476 14.3074 22.2274 14.323C22.2065 14.3397 22.1837 14.3538 22.1595 14.3649C22.1372 14.3795 22.1117 14.3881 22.0854 14.3901C22.0854 14.3565 22.0854 14.3293 22.0977 14.3C22.1101 14.2706 22.0977 14.2392 22.1121 14.2078L22.1245 14.124C22.1245 14.0926 22.1245 14.0611 22.1245 14.0297C22.1245 13.9983 22.1245 13.9731 22.1245 13.9459C22.1245 13.9186 22.1245 13.883 22.1245 13.8537C22.1245 13.8244 22.1245 13.795 22.1245 13.7678C22.1245 13.7405 22.1245 13.707 22.1245 13.6756C22.1194 13.6458 22.1194 13.6153 22.1245 13.5855L22.143 13.6127C22.1738 13.668 22.2127 13.7181 22.2583 13.7615L22.3386 13.839C22.4076 13.9047 22.4835 13.9623 22.5651 14.0108C22.6598 14.0632 22.7619 14.1007 22.8677 14.1219C22.9914 14.1505 23.1205 14.1433 23.2404 14.1009C23.3474 14.0632 23.4462 14.0171 23.5595 13.9899C23.5651 13.9856 23.5693 13.9798 23.5718 13.9731C23.5718 13.9731 23.6562 13.9061 23.6521 13.9082ZM18.9745 13.6106L18.9415 13.5771C18.9601 13.5834 18.9662 13.596 18.9745 13.6106ZM17.523 11.1215C17.4781 11.1018 17.4369 11.0741 17.4015 11.0398L17.3851 11.0188V11.0042C17.4552 10.966 17.512 10.9068 17.5477 10.8345C17.5911 10.7597 17.6243 10.6794 17.6465 10.5956C17.6589 10.5532 17.6589 10.5081 17.6465 10.4657C17.6465 10.4531 17.6362 10.4447 17.6218 10.4531C17.6256 10.5258 17.61 10.5983 17.5765 10.6626C17.5309 10.7678 17.4659 10.8631 17.3851 10.9434L17.3624 10.9602C17.3624 10.9476 17.3439 10.9392 17.3418 10.9245C17.3398 10.9099 17.3254 10.8324 17.3212 10.7842C17.3189 10.7463 17.3306 10.7089 17.3542 10.6794C17.3702 10.6557 17.3881 10.6332 17.4077 10.6124C17.4319 10.588 17.4546 10.5621 17.4756 10.5348L17.4077 10.583C17.4077 10.5705 17.4077 10.5663 17.4077 10.56C17.4357 10.5279 17.4683 10.5003 17.5045 10.4783L17.6177 10.4112C17.6661 10.3864 17.7202 10.3755 17.7742 10.3798C17.785 10.3768 17.7963 10.3768 17.8071 10.3798C17.838 10.3798 17.8462 10.4091 17.8339 10.4489C17.8326 10.4699 17.8368 10.4909 17.8462 10.5097C17.8543 10.5213 17.8586 10.5353 17.8586 10.5495C17.8586 10.5638 17.8543 10.5777 17.8462 10.5893C17.8382 10.6019 17.8313 10.6152 17.8256 10.6291C17.8256 10.6291 17.8256 10.6417 17.8256 10.648C17.8256 10.6543 17.8504 10.5914 17.8833 10.5767C17.8833 10.6082 17.8648 10.6333 17.8606 10.6689L17.9142 10.6249C17.8895 10.7048 17.8571 10.782 17.8174 10.8554C17.8174 10.8554 17.8298 10.8554 17.8318 10.8428C17.8357 10.8375 17.8392 10.8319 17.8421 10.8261C17.8455 10.8197 17.8502 10.8142 17.8559 10.8098C17.8616 10.8055 17.8681 10.8025 17.8751 10.8009C17.8728 10.7721 17.8817 10.7436 17.8998 10.7213C17.9103 10.7045 17.9228 10.6891 17.9368 10.6752C17.9368 10.6899 17.9265 10.7025 17.9224 10.7171C17.9197 10.7274 17.9197 10.7382 17.9224 10.7485C17.9273 10.7567 17.9299 10.7662 17.9299 10.7758C17.9299 10.7854 17.9273 10.7948 17.9224 10.803C17.915 10.8115 17.9094 10.8215 17.9059 10.8324C17.8861 10.8721 17.8696 10.9134 17.8565 10.956C17.8647 10.9467 17.8723 10.9369 17.8792 10.9266C17.8906 10.9136 17.9009 10.8996 17.9101 10.8847L17.9368 10.847C17.9448 10.8332 17.9552 10.8211 17.9677 10.8114C17.9689 10.819 17.9689 10.8268 17.9677 10.8345C17.9334 10.9142 17.8829 10.9856 17.8195 11.044L17.7659 11.0922C17.7539 11.1046 17.7466 11.1209 17.7454 11.1383C17.7445 11.1445 17.7445 11.1509 17.7454 11.1571C17.7649 11.146 17.7806 11.1293 17.7906 11.1089C17.8111 11.0582 17.8463 11.015 17.8915 10.9853C17.9039 10.9853 17.9162 10.9623 17.9306 10.9539L17.908 10.9769C17.8825 11.0327 17.8452 11.082 17.7989 11.1215C17.7886 11.1215 17.7845 11.1508 17.7762 11.1655C17.768 11.1802 17.7927 11.1781 17.803 11.1655C17.8237 11.1468 17.8405 11.124 17.8524 11.0985C17.8599 11.0827 17.8681 11.0673 17.8771 11.0524C17.8891 11.0367 17.9021 11.022 17.9162 11.0084C17.9265 11.0084 17.9162 11.0293 17.9162 11.0377C17.9058 11.0566 17.8941 11.0748 17.8812 11.0922C17.868 11.1126 17.8536 11.1322 17.838 11.1508C17.8215 11.1739 17.8215 11.1739 17.8215 11.2095C17.7145 11.1969 17.6156 11.1634 17.523 11.1215ZM17.9595 12.1859C17.9174 12.1989 17.8725 12.1997 17.83 12.1883C17.7874 12.1768 17.7488 12.1535 17.7186 12.1209C17.6915 12.0957 17.6721 12.0629 17.663 12.0266C17.6345 11.9297 17.6381 11.8259 17.6733 11.7312C17.7067 11.6331 17.7532 11.54 17.8112 11.4546C17.8368 11.4172 17.8737 11.3892 17.9162 11.375C17.9266 11.3708 17.9377 11.3687 17.9489 11.3691C17.9601 11.3695 17.9711 11.3722 17.9811 11.3771C17.9912 11.3821 18.0002 11.3891 18.0074 11.3977C18.0147 11.4064 18.0201 11.4165 18.0233 11.4274C18.0411 11.4814 18.0447 11.5392 18.0336 11.595C18.0282 11.6227 18.0248 11.6507 18.0233 11.6788C18.0575 11.6192 18.0739 11.5508 18.0706 11.4819C18.0727 11.4522 18.0671 11.4225 18.0545 11.3957C18.0418 11.3689 18.0226 11.3459 17.9986 11.3289C17.9986 11.308 18.013 11.308 18.0212 11.3038L18.1509 11.2493L18.1962 11.2367C18.1756 11.2996 18.1654 11.3059 18.1118 11.3017H18.0954L18.0706 11.3164L18.0974 11.352L18.1962 11.3331L18.1654 11.3645C18.1654 11.3771 18.1654 11.3834 18.1859 11.3771L18.2251 11.3625C18.2251 11.3625 18.2251 11.3625 18.2374 11.3625L18.1859 11.4358C18.1889 11.4423 18.1924 11.4486 18.1962 11.4546C18.1962 11.4546 18.2148 11.4546 18.223 11.4546L18.2518 11.4358C18.2662 11.4358 18.2683 11.4505 18.2642 11.463C18.2601 11.4756 18.2642 11.4903 18.2518 11.5091C18.2395 11.528 18.2765 11.4903 18.2909 11.4882C18.3054 11.4861 18.2909 11.5112 18.2909 11.5217C18.2909 11.5322 18.3259 11.5217 18.3156 11.5489C18.3236 11.5599 18.3292 11.5725 18.3321 11.5859C18.3349 11.5992 18.3349 11.6131 18.3321 11.6264L18.3671 11.6118L18.3548 11.6684H18.3774C18.3774 11.7144 18.3404 11.7522 18.3424 11.7983L18.3651 11.7605C18.3651 11.792 18.3651 11.8234 18.3651 11.8548C18.3686 11.8451 18.3735 11.836 18.3795 11.8276L18.3609 11.8506C18.3342 11.8695 18.328 11.903 18.3115 11.9303C18.2951 11.9575 18.3115 11.9303 18.3115 11.9428L18.3239 11.9303C18.3338 11.9148 18.3427 11.8987 18.3506 11.8821C18.3506 11.9114 18.3506 11.9114 18.3239 11.9303C18.3228 11.9571 18.3117 11.9826 18.293 12.0015L18.2415 12.0581L18.3198 12.0141C18.2976 12.05 18.2673 12.0801 18.2316 12.102C18.1958 12.1238 18.1555 12.1368 18.1139 12.1398C18.0605 12.1518 18.0087 12.17 17.9595 12.1943V12.1859ZM18.1262 13.0324C18.0764 13.029 18.0291 13.0089 17.9918 12.9751C17.9546 12.9413 17.9294 12.8958 17.9204 12.8459C17.9184 12.8292 17.9184 12.8123 17.9204 12.7956C17.9184 12.7831 17.9184 12.7704 17.9204 12.7579C17.9279 12.6796 17.9518 12.6039 17.9904 12.5358C18.0089 12.4939 18.0109 12.496 18.0459 12.4708V12.4499C18.0665 12.4395 18.0831 12.4226 18.0933 12.4017C18.1184 12.3531 18.1562 12.3126 18.2024 12.2844C18.2573 12.2473 18.3143 12.2137 18.3733 12.1838L18.4577 12.1545C18.4577 12.1712 18.468 12.188 18.4865 12.188C18.5051 12.188 18.4865 12.188 18.4865 12.2006L18.4412 12.2445C18.4556 12.2571 18.4639 12.2445 18.4742 12.2445C18.4845 12.2445 18.5174 12.2445 18.5277 12.255C18.5349 12.2643 18.5388 12.2757 18.5388 12.2875C18.5388 12.2993 18.5349 12.3107 18.5277 12.32C18.5286 12.3234 18.5286 12.327 18.5277 12.3305C18.5668 12.3179 18.5668 12.3179 18.5751 12.3786C18.5627 12.4017 18.5462 12.4247 18.5298 12.4499C18.5586 12.4499 18.5627 12.4017 18.5936 12.4247C18.5809 12.45 18.5657 12.4739 18.5483 12.496C18.5648 12.496 18.5771 12.4708 18.5977 12.496C18.5812 12.5232 18.5627 12.5484 18.5401 12.5798C18.5689 12.5798 18.5792 12.5421 18.6059 12.5463C18.5956 12.584 18.5586 12.607 18.5504 12.651C18.5792 12.6384 18.5833 12.6007 18.6142 12.5986C18.5952 12.6405 18.5725 12.6805 18.5462 12.7181C18.5586 12.7181 18.5627 12.7181 18.5709 12.7181L18.5874 12.7013C18.5977 12.7139 18.5874 12.7223 18.5874 12.7327C18.5494 12.7857 18.5182 12.8435 18.4948 12.9045C18.5137 12.8781 18.5343 12.8529 18.5565 12.8291C18.5812 12.8082 18.5854 12.7684 18.6224 12.7453C18.5957 12.8106 18.5573 12.8703 18.5092 12.9213H18.5318C18.5456 12.9121 18.561 12.9058 18.5771 12.9025L18.5483 12.9318L18.5154 12.959C18.5164 12.9695 18.5164 12.98 18.5154 12.9904C18.4633 13.0338 18.3992 13.0595 18.3321 13.0638C18.2539 13.0324 18.1921 13.0324 18.1262 13.0324ZM18.5915 12.6405C18.5919 12.6468 18.5903 12.653 18.587 12.6583C18.5837 12.6636 18.5788 12.6677 18.573 12.6699C18.5786 12.6568 18.5863 12.6448 18.5956 12.6343L18.5915 12.6405ZM18.5483 12.9255C18.5483 12.9255 18.5483 12.9129 18.5483 12.9087C18.5483 12.9045 18.5483 12.9087 18.5627 12.9087V12.9234L18.5483 12.9255ZM18.6162 13.1832C18.6076 13.1864 18.5981 13.1864 18.5895 13.1832L18.3836 13.0847L18.4845 13.0554C18.4989 13.0554 18.5133 13.0554 18.5256 13.0554C18.538 13.0554 18.5483 13.0554 18.5586 13.0554H18.5977V13.0847L18.6389 13.1245C18.6393 13.1437 18.6327 13.1624 18.6204 13.1769L18.6162 13.1832ZM18.6924 12.0183C18.6932 12.0071 18.6932 11.9959 18.6924 11.9847C18.7068 11.9847 18.7068 11.9847 18.6945 12.012L18.6924 12.0183ZM18.6924 13.5876C18.6949 13.5861 18.6978 13.5853 18.7006 13.5853C18.7035 13.5853 18.7064 13.5861 18.7089 13.5876C18.7089 13.5876 18.7192 13.5876 18.7254 13.6023C18.7501 13.64 18.7682 13.6818 18.7789 13.7259V13.7364L18.6965 13.6044C18.6933 13.6015 18.6914 13.5975 18.691 13.5933C18.6906 13.589 18.6918 13.5847 18.6945 13.5813L18.6924 13.5876ZM18.853 14.1261C18.8203 14.1435 18.7867 14.159 18.7521 14.1722C18.7242 14.1841 18.6934 14.1872 18.6637 14.1813C18.634 14.1753 18.6067 14.1605 18.5854 14.1386C18.5794 14.1268 18.5752 14.1141 18.573 14.1009C18.5606 14.1009 18.5401 14.0904 18.5298 14.0758C18.518 14.0559 18.5103 14.0338 18.5071 14.0108C18.4947 13.9331 18.4947 13.8539 18.5071 13.7762C18.51 13.7562 18.5148 13.7365 18.5215 13.7175C18.5256 13.7048 18.5327 13.6933 18.5421 13.684C18.5783 13.656 18.6186 13.6341 18.6615 13.619C18.7109 13.6694 18.7488 13.7302 18.7727 13.7971C18.7872 13.8377 18.7872 13.8822 18.7727 13.9228C18.7727 13.9396 18.7727 13.9564 18.7604 13.9794C18.7809 13.9668 18.7809 13.948 18.7871 13.9312C18.794 13.9128 18.7995 13.8939 18.8036 13.8746C18.8102 13.8929 18.8102 13.913 18.8036 13.9312C18.8046 13.9466 18.8046 13.962 18.8036 13.9773C18.7994 13.9979 18.7939 14.0182 18.7871 14.0381L18.8427 13.9836C18.8352 14.0315 18.8191 14.0777 18.7954 14.1198C18.8201 14.1324 18.8365 14.1198 18.8571 14.1051C18.8777 14.0905 18.8571 14.1156 18.8509 14.1198L18.853 14.1261ZM19.4048 14.4131C19.4151 14.4006 19.4233 14.4131 19.4254 14.4131C19.4357 14.4657 19.4357 14.5198 19.4254 14.5724C19.4254 14.5724 19.4254 14.5724 19.4254 14.5577L19.4048 14.4131ZM19.4295 14.7232C19.4202 14.6762 19.4202 14.6278 19.4295 14.5807C19.4326 14.6275 19.4326 14.6744 19.4295 14.7211V14.7232ZM19.4398 14.3209C19.4377 14.3148 19.4377 14.3082 19.4398 14.3021C19.4407 14.3076 19.4407 14.3133 19.4398 14.3188C19.4389 14.3175 19.4382 14.3161 19.4377 14.3146L19.4398 14.3209ZM20.2221 15.0061C20.2116 14.9784 20.2116 14.9478 20.2221 14.9202C20.2221 14.9202 20.2221 14.9202 20.2221 14.9327C20.2221 14.9453 20.2221 14.9684 20.2201 14.9998L20.2221 15.0061ZM22.0133 15.4859C21.9906 15.4859 21.9783 15.4649 21.9536 15.4733C21.9526 15.4559 21.9526 15.4384 21.9536 15.4209L21.9268 15.4419L21.8589 15.4146L21.9001 15.3497C21.9248 15.3497 21.9104 15.3811 21.9145 15.3979H21.9248C21.9392 15.3811 21.9536 15.3853 21.9701 15.3979C21.9865 15.4104 21.9701 15.4335 21.9701 15.4565L22.0112 15.4251C22.038 15.4398 22.0092 15.4586 22.0112 15.4796L22.0133 15.4859ZM22.8306 13.9186C22.693 13.8714 22.5667 13.795 22.4601 13.6944C22.4005 13.6421 22.3485 13.5814 22.3056 13.5143C22.414 13.631 22.5373 13.7325 22.6721 13.816C22.7236 13.8474 22.7771 13.8725 22.8286 13.8998L22.8492 13.9165C22.8492 13.9165 22.8348 13.9145 22.8286 13.9124L22.8306 13.9186Z" fill="#192733"/>
<path d="M26.1151 17.9269V17.9307L26.1133 17.9269H26.1151Z" fill="black"/>
<path d="M21.4541 12.7139C21.4617 12.6166 21.4797 12.5203 21.5076 12.4269C21.5282 12.3514 21.5467 12.276 21.5632 12.2006C21.5735 12.165 21.5797 12.1273 21.5879 12.0895C21.6019 12.0136 21.6233 11.9392 21.6517 11.8675C21.6517 11.8528 21.6703 11.8381 21.6517 11.8213C21.6069 11.885 21.5729 11.9558 21.5508 12.0309C21.5407 12.07 21.5283 12.1085 21.5138 12.1461C21.4743 12.2375 21.4426 12.3321 21.4191 12.429C21.3861 12.5714 21.3573 12.716 21.3264 12.848C21.3244 12.8626 21.3244 12.8774 21.3264 12.892C21.33 12.8988 21.3319 12.9063 21.3319 12.914C21.3319 12.9217 21.33 12.9293 21.3264 12.936C21.3264 12.9654 21.3264 12.9968 21.3264 13.0261L21.2894 13.3886C21.2894 13.4577 21.2729 13.5248 21.2667 13.5981C21.2667 13.617 21.2503 13.617 21.242 13.6295C21.2411 13.6337 21.2411 13.638 21.242 13.6421C21.2317 13.7867 21.2214 13.9313 21.2132 14.0779C21.201 14.2884 21.1587 14.4959 21.0876 14.6939C21.0753 14.7337 21.0608 14.7735 21.0485 14.8134C21.0176 14.9139 20.9867 15.0229 20.9538 15.113V15.1318C20.9487 15.1527 20.9379 15.1717 20.9225 15.1866C20.9072 15.2014 20.8881 15.2115 20.8673 15.2156C20.8329 15.2239 20.7977 15.2282 20.7623 15.2282C20.6828 15.2253 20.6037 15.2162 20.5256 15.201H20.4638C20.4612 15.2011 20.4587 15.2005 20.4564 15.1994C20.454 15.1984 20.452 15.1967 20.4504 15.1947C20.4488 15.1927 20.4477 15.1903 20.4472 15.1877C20.4466 15.1852 20.4467 15.1825 20.4473 15.18C20.4473 15.18 20.4473 15.157 20.4617 15.1549C20.4779 15.1484 20.4944 15.1428 20.5111 15.1381C20.4968 15.1351 20.483 15.1302 20.47 15.1234C20.47 15.1234 20.47 15.1234 20.47 15.1109L20.507 15.0816L20.4885 15.0648C20.4885 15.0355 20.5091 15.0103 20.4988 14.981L20.5214 14.9621L20.5008 14.9391L20.5194 14.8846C20.5194 14.8846 20.5194 14.8636 20.4988 14.8657V14.8909C20.4816 14.9736 20.4603 15.0555 20.435 15.136L20.3917 15.289C20.3917 15.3036 20.3814 15.3183 20.3917 15.3309C20.4232 15.3206 20.457 15.3206 20.4885 15.3309H20.5338C20.5461 15.3309 20.5606 15.3309 20.5729 15.3309C20.5276 15.3057 20.47 15.3204 20.4247 15.289C20.4247 15.2701 20.4391 15.2513 20.4473 15.2345H20.5173L20.7664 15.2596C20.7829 15.2596 20.8014 15.2596 20.8138 15.2743C20.8168 15.2764 20.8204 15.2775 20.8241 15.2775C20.8277 15.2775 20.8313 15.2764 20.8344 15.2743C20.8581 15.2686 20.8814 15.2616 20.9044 15.2534H20.9311C20.8948 15.3369 20.8326 15.4061 20.7541 15.4503C20.7117 15.4736 20.6643 15.4858 20.6161 15.4858C20.568 15.4858 20.5206 15.4736 20.4782 15.4503C20.4672 15.4453 20.4569 15.4389 20.4473 15.4315C20.4128 15.4005 20.3856 15.362 20.3677 15.3188C20.3499 15.2756 20.3419 15.2289 20.3444 15.1821C20.3444 15.1151 20.3444 15.0459 20.3444 14.9726C20.3444 14.8993 20.3629 14.8134 20.3691 14.7337C20.3794 14.6017 20.3897 14.4697 20.3979 14.3377C20.4061 14.2057 20.4185 14.0297 20.4185 13.8768C20.4185 13.64 20.4391 13.4033 20.4617 13.1644C20.4844 12.9255 20.507 12.6553 20.5132 12.3996C20.5141 12.2515 20.5313 12.1039 20.5647 11.9596V11.924C20.5372 11.9797 20.5171 12.0389 20.505 12.1C20.4959 12.1601 20.4808 12.2191 20.4597 12.276C20.4517 12.2395 20.4469 12.2023 20.4453 12.165C20.4453 12.165 20.4329 12.165 20.4329 12.1817C20.4319 12.2013 20.4319 12.2209 20.4329 12.2404C20.4329 12.2991 20.4329 12.3577 20.4329 12.4164C20.4205 12.6259 20.3958 12.8522 20.3691 13.068C20.3382 13.353 20.3197 13.64 20.3094 13.925C20.3094 14.0507 20.2908 14.1785 20.2826 14.3063C20.2826 14.321 20.2826 14.3377 20.2661 14.3482C20.2497 14.3587 20.2661 14.3754 20.2661 14.3901L20.2229 14.8092V14.8825C20.2229 14.8825 20.2229 14.9014 20.2106 14.9055C20.2096 14.8979 20.2096 14.8902 20.2106 14.8825C20.2208 14.7212 20.2332 14.5598 20.2538 14.3985C20.2538 14.4195 20.2394 14.4404 20.2373 14.4614L20.1817 14.9621C20.1806 14.9882 20.1728 15.0134 20.1591 15.0355H20.1838C20.1827 15.0424 20.1827 15.0495 20.1838 15.0564C20.1859 15.0705 20.1834 15.0849 20.1767 15.0973C20.17 15.1098 20.1595 15.1197 20.1467 15.1255C20.0793 15.175 19.9992 15.2034 19.9161 15.2073C19.888 15.2108 19.8594 15.2073 19.8328 15.1971C19.8063 15.1868 19.7826 15.1702 19.7638 15.1486L19.7432 15.1339C19.7247 15.1507 19.7226 15.1528 19.7164 15.1465L19.6588 15.0962C19.6588 15.0962 19.6588 15.0962 19.6588 15.0836H19.6897C19.6908 15.0683 19.6908 15.0529 19.6897 15.0375C19.6897 15.0124 19.6753 14.9852 19.6691 14.9579C19.6344 14.7744 19.6233 14.587 19.6361 14.4006C19.6371 14.3832 19.6371 14.3657 19.6361 14.3482C19.6342 14.3303 19.6357 14.3123 19.6407 14.295C19.6456 14.2777 19.6539 14.2616 19.665 14.2476H19.6794C19.7045 14.277 19.7366 14.2994 19.7727 14.3126C19.8087 14.3258 19.8475 14.3294 19.8853 14.3231C19.947 14.3159 20.007 14.2974 20.0623 14.2686C20.0623 14.2686 20.0808 14.2686 20.0829 14.2476L20.0232 14.2602C19.9654 14.2717 19.906 14.2717 19.8482 14.2602C19.8055 14.2549 19.7645 14.2395 19.7288 14.2151C19.693 14.1907 19.6634 14.1581 19.6423 14.1198C19.6048 14.0465 19.5837 13.9657 19.5806 13.8831C19.5806 13.7343 19.5806 13.5834 19.5806 13.4347C19.5806 13.3299 19.5908 13.2252 19.597 13.1183C19.6033 12.9199 19.6198 12.722 19.6464 12.5254C19.6611 12.4276 19.6687 12.3288 19.6691 12.2299C19.669 12.179 19.6753 12.1284 19.6876 12.0791C19.7174 11.9684 19.7216 11.8522 19.7 11.7396C19.6897 11.6915 19.6855 11.6412 19.6794 11.593C19.6691 11.5411 19.6691 11.4877 19.6794 11.4358C19.6804 11.4184 19.6804 11.4009 19.6794 11.3835C19.6794 11.3835 19.6794 11.3709 19.6691 11.3646C19.6701 11.3708 19.6701 11.3772 19.6691 11.3835C19.6401 11.4661 19.6344 11.5554 19.6526 11.6412C19.6526 11.681 19.667 11.7229 19.6732 11.7627C19.6845 11.825 19.6845 11.8889 19.6732 11.9513C19.6629 12.0016 19.6547 12.0518 19.6444 12.1021C19.6444 12.1021 19.6444 12.121 19.63 12.121C19.63 12.0497 19.6176 11.9785 19.6073 11.9115C19.597 11.8444 19.5826 11.7857 19.5703 11.7229H19.56C19.5373 11.7417 19.5497 11.7732 19.5332 11.8004C19.5305 11.7917 19.5271 11.7833 19.5229 11.7753L19.4735 11.6914C19.4735 11.6914 19.4632 11.6914 19.455 11.6914C19.4577 11.7035 19.4612 11.7154 19.4653 11.7271C19.4756 11.7742 19.4893 11.8204 19.5064 11.8654C19.5212 11.8983 19.5289 11.934 19.5291 11.9701C19.5291 12.0036 19.5291 12.0393 19.5291 12.0749C19.5291 12.1922 19.5291 12.3095 19.5291 12.429C19.5318 12.5276 19.5283 12.6263 19.5188 12.7244C19.5188 12.7998 19.5044 12.8774 19.5003 12.9549C19.4879 13.1162 19.4797 13.2796 19.4673 13.4431C19.4602 13.6133 19.4367 13.7824 19.3973 13.948C19.3777 14.0014 19.3777 14.0602 19.3973 14.1135C19.388 14.119 19.3804 14.127 19.3753 14.1366C19.3702 14.1462 19.3678 14.1571 19.3685 14.168C19.3685 14.2036 19.3685 14.2372 19.3685 14.2728C19.3692 14.2992 19.365 14.3255 19.3561 14.3503L19.1853 14.3377C19.1338 14.3377 19.1194 14.3377 19.1091 14.4069C19.1091 14.4069 19.1091 14.4195 19.1091 14.4257C19.0994 14.5365 19.1231 14.6475 19.177 14.7442C19.1851 14.7392 19.1943 14.7366 19.2038 14.7366C19.2132 14.7366 19.2225 14.7392 19.2305 14.7442C19.2573 14.7589 19.2882 14.7442 19.3191 14.7128L19.2635 14.7254C19.2537 14.7275 19.2435 14.7258 19.2348 14.7208C19.226 14.7158 19.2194 14.7077 19.2161 14.6981C19.179 14.6046 19.1574 14.5055 19.1523 14.4048C19.1498 14.3923 19.1498 14.3795 19.1523 14.3671C19.215 14.3628 19.278 14.367 19.3397 14.3796C19.3397 14.4614 19.3397 14.5389 19.3561 14.6164C19.3575 14.6775 19.363 14.7384 19.3726 14.7987C19.3769 14.8167 19.3747 14.8358 19.3664 14.8523C19.3581 14.8688 19.3442 14.8818 19.3273 14.8888C19.3084 14.8939 19.2885 14.8939 19.2697 14.8888C19.2299 14.8755 19.1963 14.8479 19.175 14.8113C19.1365 14.7467 19.1093 14.6758 19.0947 14.6017C19.0803 14.5326 19.07 14.4634 19.0597 14.3922C19.0499 14.3213 19.0348 14.2512 19.0144 14.1827C18.9965 14.131 18.9801 14.0765 18.965 14.0193C18.9423 13.9187 18.9197 13.8097 18.9011 13.7134C18.9011 13.6924 18.8867 13.6694 18.9011 13.6484C18.9155 13.6275 18.9011 13.6777 18.9217 13.6798C18.9423 13.6777 18.963 13.6777 18.9835 13.6798C19.0377 13.6976 19.096 13.6976 19.1503 13.6798L19.1606 13.6631C19.1225 13.6678 19.0838 13.663 19.048 13.6491C19.0121 13.6352 18.9801 13.6127 18.9547 13.5835H18.9444C18.9444 13.5835 18.9547 13.5835 18.9588 13.5835C19.0055 13.6016 19.055 13.6115 19.105 13.6128H19.1358L19.0391 13.5646C19.0046 13.5487 18.9742 13.525 18.9503 13.4952C18.9264 13.4654 18.9095 13.4303 18.9011 13.3928C18.8897 13.3495 18.8815 13.3053 18.8764 13.2608C18.8796 13.2207 18.8732 13.1805 18.8579 13.1435C18.8579 13.1435 18.8579 13.1434 18.8579 13.1309C18.8579 13.1183 18.8579 13.068 18.8435 13.0387C18.8405 13.0283 18.8348 13.0189 18.827 13.0115C18.8208 13.0355 18.8208 13.0607 18.827 13.0848C18.827 13.1623 18.8373 13.2398 18.8435 13.3278C18.8276 13.3052 18.8189 13.2781 18.8188 13.2503C18.792 13.0659 18.7714 12.8794 18.7591 12.6888C18.7591 12.5568 18.7364 12.4269 18.7261 12.2949C18.7158 12.1629 18.7097 12.0099 18.7014 11.8654C18.7014 11.8528 18.7014 11.8339 18.7014 11.8276C18.7014 11.857 18.7014 11.8905 18.687 11.9219C18.6726 11.9534 18.687 11.9471 18.6747 11.9534C18.6737 11.9352 18.6737 11.917 18.6747 11.8989C18.6747 11.8549 18.6747 11.8109 18.6644 11.769C18.6541 11.7271 18.6479 11.6495 18.6376 11.5909C18.6232 11.5741 18.6376 11.5553 18.6376 11.5364V11.5092H18.5903C18.5634 11.3942 18.5262 11.2819 18.4791 11.1739C18.4791 11.2158 18.4791 11.2431 18.4791 11.2703C18.4826 11.3541 18.5015 11.4365 18.5347 11.5134C18.5433 11.532 18.5495 11.5517 18.5532 11.572C18.5543 11.5846 18.5543 11.5972 18.5532 11.6097C18.5429 11.5888 18.5367 11.5804 18.5326 11.5699C18.5141 11.528 18.4976 11.4819 18.477 11.44C18.4564 11.3981 18.4503 11.3939 18.4379 11.3709C18.3803 11.2661 18.3247 11.1614 18.267 11.0587C18.2279 10.9914 18.1935 10.9214 18.1641 10.8492C18.1641 10.8324 18.1394 10.8219 18.1456 10.7989C18.1517 10.7758 18.1208 10.7633 18.1188 10.7423L17.9129 11.0252L17.7667 11.2347L17.7338 11.2787C17.7502 11.288 17.7654 11.2992 17.7791 11.3122L17.7606 11.3353C17.7033 11.3985 17.6542 11.4689 17.6144 11.5448C17.5498 11.6582 17.5218 11.7894 17.5341 11.9198C17.5367 11.975 17.5512 12.0288 17.5765 12.0777C17.6017 12.1265 17.6371 12.1692 17.6803 12.2027C17.7528 12.2529 17.8397 12.2772 17.9273 12.2718H18.02L17.8861 12.4814C17.829 12.5605 17.8019 12.658 17.81 12.7558C17.8089 12.767 17.8089 12.7782 17.81 12.7894C17.8136 12.848 17.831 12.9048 17.8608 12.9551C17.8905 13.0054 17.9317 13.0477 17.9808 13.0785C18.014 13.0997 18.053 13.1093 18.092 13.1057C18.125 13.1057 18.16 13.1057 18.1929 13.0953C18.2524 13.0864 18.3131 13.0975 18.3658 13.1267C18.4759 13.1872 18.5806 13.2574 18.6788 13.3362C18.7013 13.3505 18.7175 13.373 18.7241 13.3991L18.687 13.4263C18.6145 13.474 18.5457 13.5272 18.4811 13.5855C18.4461 13.6173 18.4181 13.6564 18.3993 13.7001C18.3805 13.7439 18.3712 13.7913 18.372 13.8391C18.367 13.9473 18.4006 14.0537 18.4667 14.1387C18.4886 14.1727 18.5196 14.1996 18.5562 14.2159C18.5928 14.2323 18.6332 14.2375 18.6726 14.2309L18.7776 14.2078L18.8847 14.1785C18.9028 14.1937 18.9146 14.2155 18.9176 14.2393C18.9485 14.3566 18.9814 14.4718 19.0123 14.5892C19.0349 14.6715 19.0667 14.7509 19.107 14.8259C19.1377 14.88 19.1826 14.9243 19.2367 14.9537C19.2559 14.9622 19.2759 14.9685 19.2964 14.9726C19.3256 14.9747 19.3547 14.9676 19.3798 14.9522C19.4048 14.9368 19.4246 14.9139 19.4364 14.8867C19.4364 14.8741 19.4364 14.8532 19.4591 14.849C19.4817 14.8448 19.4591 14.849 19.4591 14.8657C19.4679 14.9223 19.4824 14.9777 19.5023 15.0313C19.5248 15.106 19.5693 15.1719 19.63 15.2198C19.696 15.2698 19.7752 15.2985 19.8574 15.3023C19.9396 15.306 20.021 15.2846 20.0911 15.2408L20.1406 15.2115C20.155 15.2115 20.1653 15.1842 20.1858 15.1779L20.225 15.3141C20.24 15.3742 20.2719 15.4284 20.317 15.4701C20.362 15.5119 20.418 15.5392 20.4782 15.5488H20.4947C20.5639 15.5597 20.6348 15.5525 20.7006 15.5278L20.8508 15.3183L20.89 15.2659V15.2534L21.1288 14.916C21.1432 14.8553 21.1576 14.7966 21.17 14.7358C21.1988 14.5892 21.2235 14.4425 21.2503 14.2958C21.2503 14.2958 21.2503 14.2728 21.2503 14.2665L21.2317 14.5619L21.2194 14.7714L21.2729 14.6981L21.2853 14.6772V14.6646C21.274 14.6479 21.2667 14.6289 21.2639 14.6089C21.261 14.5889 21.2627 14.5686 21.2688 14.5494H21.31L21.275 14.5242C21.2727 14.5219 21.2708 14.5191 21.2696 14.516C21.2683 14.513 21.2677 14.5097 21.2677 14.5064C21.2677 14.5031 21.2683 14.4998 21.2696 14.4968C21.2708 14.4937 21.2727 14.4909 21.275 14.4886C21.2853 14.4886 21.3017 14.4886 21.31 14.4739L21.2708 14.4383L21.2853 14.4236C21.2853 14.4236 21.2997 14.4236 21.3038 14.4236L21.2853 14.3817L21.3141 14.3587L21.2935 14.3377C21.2971 14.3018 21.3026 14.2662 21.31 14.2309C21.3467 14.2227 21.3851 14.2295 21.417 14.2497C21.4343 14.2594 21.4522 14.2678 21.4706 14.2749C21.4984 14.2875 21.5273 14.2973 21.557 14.3042L21.59 14.256L21.5097 14.212C21.4818 14.1993 21.4584 14.1783 21.4426 14.1517C21.4268 14.1251 21.4193 14.0943 21.4211 14.0633C21.4214 14.0345 21.427 14.0061 21.4376 13.9795V13.9396C21.4376 13.9396 21.4253 13.9396 21.4232 13.9501L21.4047 13.992C21.3869 14.0265 21.3813 14.0661 21.3888 14.1042C21.3963 14.1423 21.4164 14.1767 21.4458 14.2015L21.5035 14.2476C21.4912 14.2484 21.4788 14.2484 21.4664 14.2476C21.4313 14.2341 21.4011 14.21 21.38 14.1785C21.331 14.0991 21.3079 14.006 21.3141 13.9124C21.3141 13.7196 21.3326 13.5248 21.3408 13.332C21.3491 13.1393 21.4397 12.9234 21.4541 12.7139ZM17.9541 12.1859C17.912 12.199 17.8671 12.1998 17.8246 12.1883C17.782 12.1768 17.7434 12.1535 17.7132 12.121C17.6861 12.0957 17.6668 12.0629 17.6576 12.0267C17.6291 11.9297 17.6327 11.8259 17.6679 11.7313C17.7014 11.6331 17.7478 11.5401 17.8058 11.4547C17.8314 11.4172 17.8683 11.3893 17.9108 11.3751C17.9212 11.3708 17.9323 11.3688 17.9435 11.3691C17.9547 11.3695 17.9657 11.3722 17.9758 11.3772C17.9858 11.3821 17.9948 11.3891 18.002 11.3978C18.0093 11.4064 18.0147 11.4166 18.0179 11.4275C18.0357 11.4814 18.0393 11.5392 18.0282 11.5951C18.0228 11.6227 18.0194 11.6507 18.0179 11.6789C18.0521 11.6193 18.0686 11.5509 18.0653 11.4819C18.0673 11.4523 18.0617 11.4226 18.0491 11.3958C18.0364 11.369 18.0172 11.3459 17.9932 11.329C17.9932 11.308 18.0076 11.308 18.0158 11.3038L18.1456 11.2494L18.1908 11.2368C18.1703 11.2996 18.16 11.3059 18.1064 11.3017H18.09L18.0653 11.3164L18.092 11.352L18.1908 11.3332L18.16 11.3646C18.16 11.3772 18.16 11.3834 18.1805 11.3772L18.2197 11.3625C18.2197 11.3625 18.2197 11.3625 18.232 11.3625L18.1805 11.4358C18.1835 11.4424 18.187 11.4487 18.1908 11.4547C18.1908 11.4547 18.2094 11.4547 18.2176 11.4547L18.2464 11.4358C18.2608 11.4358 18.2629 11.4505 18.2588 11.4631C18.2547 11.4756 18.2588 11.4903 18.2464 11.5092C18.2341 11.528 18.2711 11.4903 18.2855 11.4882C18.3 11.4861 18.2855 11.5113 18.2855 11.5217C18.2855 11.5322 18.3205 11.5217 18.3103 11.549C18.3182 11.56 18.3239 11.5726 18.3267 11.5859C18.3295 11.5993 18.3295 11.6131 18.3267 11.6265L18.3617 11.6118L18.3494 11.6684H18.372C18.372 11.7145 18.335 11.7522 18.337 11.7983L18.3597 11.7606C18.3597 11.792 18.3597 11.8235 18.3597 11.8549C18.3597 11.8863 18.3267 11.9073 18.3103 11.9345C18.2938 11.9617 18.3103 11.9345 18.3103 11.9471L18.3226 11.9345C18.3215 11.9614 18.3105 11.9868 18.2917 12.0057L18.2403 12.0623L18.3185 12.0183C18.2963 12.0542 18.2661 12.0844 18.2303 12.1062C18.1945 12.128 18.1542 12.141 18.1126 12.144C18.0594 12.1547 18.0076 12.1715 17.9582 12.1943L17.9541 12.1859ZM18.125 13.024C18.0752 13.0207 18.0279 13.0005 17.9906 12.9667C17.9533 12.933 17.9281 12.8875 17.9191 12.8375C17.9171 12.8208 17.9171 12.804 17.9191 12.7873C17.9171 12.7748 17.9171 12.762 17.9191 12.7496C17.9266 12.6713 17.9505 12.5956 17.9891 12.5275C18.0076 12.4856 18.0097 12.4876 18.0447 12.4625V12.4415C18.0652 12.4312 18.0818 12.4143 18.092 12.3934C18.1172 12.3448 18.1549 12.3042 18.2011 12.276C18.256 12.2389 18.3131 12.2053 18.372 12.1754L18.4564 12.1461C18.4564 12.1629 18.4667 12.1796 18.4853 12.1796C18.5038 12.1796 18.4853 12.1796 18.4853 12.1922L18.44 12.2362C18.4544 12.2488 18.4626 12.2362 18.4729 12.2362C18.4832 12.2362 18.5161 12.2362 18.5264 12.2467C18.5336 12.2559 18.5375 12.2674 18.5375 12.2792C18.5375 12.291 18.5336 12.3024 18.5264 12.3116C18.5273 12.3151 18.5273 12.3187 18.5264 12.3221C18.5656 12.3095 18.5655 12.3096 18.5738 12.3703C18.5614 12.3934 18.545 12.4164 18.5285 12.4415C18.5573 12.4415 18.5614 12.3934 18.5923 12.4164C18.5796 12.4416 18.5644 12.4655 18.547 12.4876C18.5635 12.4876 18.5758 12.4625 18.5964 12.4876C18.58 12.5149 18.5614 12.54 18.5388 12.5714C18.5676 12.5714 18.5779 12.5337 18.6047 12.5379C18.5944 12.5756 18.5573 12.5987 18.5491 12.6427C18.5779 12.6301 18.582 12.5924 18.6129 12.5903C18.594 12.6322 18.5712 12.6722 18.545 12.7097C18.5573 12.7097 18.5614 12.7097 18.5697 12.7097L18.5861 12.693C18.5964 12.7055 18.5861 12.7139 18.5861 12.7244C18.5481 12.7774 18.517 12.8351 18.4935 12.8962C18.5124 12.8697 18.5331 12.8445 18.5553 12.8208C18.58 12.7998 18.5841 12.76 18.6211 12.737C18.5945 12.8023 18.5561 12.862 18.5079 12.913H18.5306C18.5443 12.9038 18.5597 12.8974 18.5758 12.8941L18.547 12.9234L18.5141 12.9507C18.5151 12.9611 18.5151 12.9717 18.5141 12.9821C18.4621 13.0255 18.398 13.0511 18.3308 13.0554C18.2526 13.0324 18.1908 13.0324 18.125 13.0324V13.024ZM18.615 13.1749C18.6063 13.1781 18.5968 13.1781 18.5882 13.1749L18.3823 13.0764L18.4832 13.0471C18.4976 13.0471 18.512 13.0471 18.5244 13.0471C18.5367 13.0471 18.547 13.0471 18.5573 13.0471H18.5964V13.0764L18.6376 13.1162C18.6389 13.1271 18.6379 13.1381 18.6347 13.1486C18.6316 13.1591 18.6262 13.1688 18.6191 13.177L18.615 13.1749ZM18.8456 14.1177C18.8129 14.1352 18.7792 14.1506 18.7447 14.1638C18.7167 14.1757 18.686 14.1789 18.6563 14.1729C18.6266 14.167 18.5993 14.1521 18.5779 14.1303C18.5719 14.1184 18.5678 14.1057 18.5656 14.0926C18.5532 14.0926 18.5326 14.0821 18.5223 14.0675C18.5105 14.0476 18.5028 14.0255 18.4997 14.0025C18.4873 13.9248 18.4873 13.8455 18.4997 13.7678C18.5025 13.7478 18.5073 13.7282 18.5141 13.7092C18.5181 13.6964 18.5252 13.6849 18.5347 13.6756C18.5709 13.6477 18.6112 13.6258 18.6541 13.6107C18.7035 13.6611 18.7414 13.7219 18.7653 13.7888C18.7797 13.8294 18.7797 13.8739 18.7653 13.9145C18.7653 13.9313 18.7653 13.948 18.7529 13.9711C18.7735 13.9585 18.7735 13.9396 18.7797 13.9229C18.7866 13.9045 18.7921 13.8856 18.7961 13.8663C18.8028 13.8846 18.8028 13.9046 18.7961 13.9229C18.7971 13.9382 18.7971 13.9536 18.7961 13.969C18.792 13.9896 18.7865 14.0099 18.7797 14.0297L18.8353 13.9753C18.8277 14.0232 18.8117 14.0694 18.7879 14.1115C18.8126 14.124 18.8291 14.1115 18.8497 14.0968C18.8703 14.0821 18.8558 14.1156 18.8497 14.1198L18.8456 14.1177Z" fill="#192733"/>
<path d="M20.7417 15.5467L20.7232 15.5718L19.3355 17.5204L19.2717 17.6105C19.247 17.6461 19.2203 17.6817 19.1894 17.7194C18.9872 17.9862 18.7693 18.2402 18.5367 18.48L18.51 18.5093L18.5367 18.5408C17.5363 19.6208 16.3291 20.4811 14.9897 21.0684C13.6502 21.6558 12.2067 21.9578 10.7482 21.956C9.34228 21.9593 7.94949 21.6808 6.64935 21.1363C5.34921 20.5918 4.16718 19.792 3.17076 18.7826C2.17433 17.7733 1.38302 16.574 0.841997 15.2534C0.300978 13.9328 0.0208511 12.5167 0.0176066 11.0859C0.0143622 9.65513 0.288065 8.2377 0.823088 6.91457C1.35811 5.59143 2.14398 4.3885 3.13582 3.37445C4.12765 2.3604 5.30604 1.55509 6.6037 1.0045C7.90136 0.453911 9.29286 0.168829 10.6988 0.165527C10.987 0.165527 11.2732 0.180192 11.5573 0.20324L11.8003 0.224194L11.9814 0.245147C12.1255 0.261909 12.2676 0.282861 12.4097 0.303814H12.4508C12.5476 0.31848 12.6464 0.333149 12.7453 0.352007H12.7988C12.8873 0.368768 12.9779 0.387621 13.0767 0.412764C14.1783 0.659752 15.234 1.08414 16.2041 1.66991C16.41 1.79143 16.5891 1.91086 16.7703 2.03867C17.0448 2.22724 17.3062 2.42699 17.5547 2.63791C17.67 2.73429 17.777 2.83067 17.8882 2.93124L17.9088 2.9501C17.9479 2.98362 17.987 3.01924 18.0261 3.05905L18.0467 3.08L18.0673 3.09886C18.081 3.11287 18.0955 3.12616 18.1105 3.13867L18.162 3.19105C18.2053 3.23086 18.2464 3.27276 18.2876 3.31467C18.3864 3.41315 18.4832 3.5242 18.5779 3.61848L19.035 4.15486C19.0555 4.1821 19.0844 4.21143 19.1111 4.25124L19.9779 5.48953L19.5435 6.09086L19.4879 6.16838L17.5855 8.8021L17.4682 8.96553L16.9658 9.68L16.8361 9.49562L16.4779 8.99276L16.2885 8.73086L15.2261 7.23277L15.1994 7.20553C15.0511 7.04 14.9029 6.88496 14.7505 6.74039V6.75505C13.7539 5.77585 12.446 5.19171 11.0632 5.10819C10.9623 5.10819 10.8573 5.10819 10.7585 5.10819C9.72523 5.10755 8.71022 5.38538 7.81668 5.91343C6.92314 6.44147 6.18294 7.2009 5.67134 8.11449C5.15973 9.02808 4.89497 10.0633 4.90398 11.1148C4.91298 12.1663 5.19543 13.1966 5.72261 14.101C5.82606 14.2781 5.93877 14.4494 6.06025 14.6143C6.53482 15.2612 7.13282 15.804 7.81843 16.2101C8.50403 16.6162 9.26313 16.8773 10.0503 16.9777H10.0853H10.1841C10.357 16.9945 10.532 17.0029 10.7091 17.0029C11.1946 17.0047 11.6786 16.9463 12.1503 16.829H12.1544L12.2491 16.8038C12.4138 16.7577 12.5805 16.7032 12.7494 16.6383L12.8832 16.5838C13.0458 16.5147 13.2105 16.4371 13.3711 16.3491L13.6491 16.1899L13.7232 16.1438C14.3805 15.7149 14.9629 15.1775 15.4464 14.5535L15.5205 14.453L15.5308 14.4341L15.6544 14.2895L15.8005 14.0926L16.6447 12.9088L16.7147 12.8103C16.7147 12.8103 17.0317 12.2865 17.0688 12.3179L17.0976 12.2718L17.1347 12.2215L17.2376 12.0791L17.3426 11.9324L17.3755 11.8842L17.4044 11.8465L17.7688 11.3311C17.7852 11.3403 17.8004 11.3516 17.8141 11.3646L17.7955 11.3876C17.7383 11.4509 17.6892 11.5213 17.6494 11.5972C17.5848 11.7106 17.5568 11.8417 17.5691 11.9722C17.5717 12.0273 17.5862 12.0812 17.6115 12.1301C17.6367 12.1789 17.6721 12.2216 17.7153 12.255C17.7878 12.3052 17.8747 12.3295 17.9623 12.3242H18.055L17.9211 12.5337C17.864 12.6128 17.8369 12.7103 17.845 12.8082C17.8439 12.8193 17.8439 12.8306 17.845 12.8417C17.8486 12.9003 17.866 12.9572 17.8958 13.0075C17.9255 13.0578 17.9667 13.1001 18.0158 13.1309C18.049 13.1521 18.088 13.1616 18.127 13.1581C18.16 13.1581 18.195 13.1581 18.2279 13.1476C18.2874 13.1388 18.348 13.1498 18.4008 13.1791C18.5109 13.2396 18.6156 13.3097 18.7138 13.3886C18.7363 13.4028 18.7525 13.4253 18.7591 13.4514L18.722 13.4787C18.6495 13.5264 18.5807 13.5796 18.5161 13.6379C18.481 13.6697 18.4531 13.7087 18.4343 13.7525C18.4155 13.7963 18.4062 13.8437 18.407 13.8914C18.402 13.9997 18.4356 14.1061 18.5017 14.1911C18.5236 14.2251 18.5546 14.2519 18.5912 14.2683C18.6278 14.2847 18.6682 14.2898 18.7076 14.2832L18.8126 14.2602L18.9197 14.2309C18.9378 14.2461 18.9496 14.2678 18.9526 14.2916C18.9835 14.409 19.0164 14.5242 19.0473 14.6415C19.0699 14.7239 19.1017 14.8033 19.142 14.8783C19.1727 14.9324 19.2176 14.9766 19.2717 15.0061C19.2909 15.0146 19.3109 15.0209 19.3314 15.025C19.3606 15.0271 19.3897 15.0199 19.4148 15.0045C19.4398 14.9892 19.4596 14.9663 19.4714 14.939C19.4714 14.9265 19.4714 14.9055 19.4941 14.9013C19.5167 14.8971 19.4941 14.9013 19.4941 14.9181C19.5029 14.9746 19.5174 15.0301 19.5373 15.0836C19.5597 15.1584 19.6043 15.2242 19.665 15.2722C19.731 15.3222 19.8102 15.3509 19.8924 15.3546C19.9746 15.3584 20.056 15.3369 20.1261 15.2931L20.1755 15.2638C20.19 15.2638 20.2003 15.2366 20.2208 15.2303L20.26 15.3665C20.275 15.4265 20.3069 15.4808 20.352 15.5225C20.397 15.5642 20.453 15.5916 20.5132 15.6011H20.5297C20.6039 15.6028 20.6772 15.584 20.7417 15.5467Z" fill="#0E2B71"/>
</g>
<defs>
<clipPath id="clip0_1820_2055">
<rect width="42" height="22" fill="white"/>
</clipPath>
</defs>
</svg>
