<?xml version="1.0" encoding="UTF-8"?>
<svg version="1.1" xmlns="http://www.w3.org/2000/svg" width="58" height="54">
<path d="M0 0 C0 16.17 0 32.34 0 49 C-4.62658237 48.22890294 -7.82817601 47.43594894 -12.0546875 45.71484375 C-13.16328125 45.26689453 -14.271875 44.81894531 -15.4140625 44.35742188 C-16.55617187 43.88884766 -17.69828125 43.42027344 -18.875 42.9375 C-20.0403125 42.46505859 -21.205625 41.99261719 -22.40625 41.50585938 C-25.27309544 40.34267209 -28.13752807 39.17389942 -31 38 C-29.73240535 34.46088189 -28.30014729 31.84097103 -25.8828125 28.96875 C-24.97208984 27.87626953 -24.97208984 27.87626953 -24.04296875 26.76171875 C-23.41003906 26.01535156 -22.77710938 25.26898437 -22.125 24.5 C-20.87739535 23.01059156 -19.62999426 21.52101257 -18.3828125 20.03125 C-17.79790039 19.33644531 -17.21298828 18.64164063 -16.61035156 17.92578125 C-14.70376385 15.64573821 -12.84194174 13.33250913 -11 11 C-12.3921875 12.2065625 -12.3921875 12.2065625 -13.8125 13.4375 C-17.88410439 16.93332195 -22.04912307 20.30849434 -26.23046875 23.671875 C-28.85529107 25.87835469 -31.24979676 28.21676813 -33.6875 30.625 C-36.80053745 33.38603322 -37.51184286 33.9679897 -41.8125 34.25 C-43.73828125 33.76953125 -43.73828125 33.76953125 -46 33 C-47.04542969 32.67386719 -48.09085938 32.34773438 -49.16796875 32.01171875 C-52.13163698 31.05625713 -55.06884416 30.05033084 -58 29 C-58 27.68 -58 26.36 -58 25 C-52.86315007 22.56411525 -47.72601027 20.12884316 -42.58862305 17.6940918 C-40.84798708 16.86905696 -39.10742479 16.04386665 -37.36694336 15.21850586 C-36.52848877 14.82091064 -35.69003418 14.42331543 -34.82617188 14.01367188 C-33.57303696 13.41940903 -33.57303696 13.41940903 -32.29458618 12.81314087 C-29.79128117 11.62769385 -27.28606416 10.44635532 -24.78076172 9.26513672 C-21.70439592 7.81311558 -18.63919963 6.34113052 -15.58251953 4.84814453 C-14.90089249 4.5192775 -14.21926544 4.19041046 -13.51698303 3.85157776 C-11.69790749 2.97362368 -9.88308082 2.08688122 -8.06860352 1.19946289 C-5 -0 -5 -0 0 0 Z " fill="#06D889" transform="translate(58,0)"/>
<path d="M0 0 C4.4445628 0.74076047 7.01457575 1.24927043 10.875 3.0625 C12.04675781 3.60583984 12.04675781 3.60583984 13.2421875 4.16015625 C14.11230469 4.57587891 14.11230469 4.57587891 15 5 C13.12082408 8.96523359 11.03513071 11.82033926 8 15 C6.68 15 5.36 15 4 15 C2.68 10.05 1.36 5.1 0 0 Z " fill="#06D889" transform="translate(19,39)"/>
</svg>
